<?xml version="1.0" encoding="iso-8859-1"?>
<!-- Generator: Adobe Illustrator 19.0.0, SVG Export Plug-In . SVG Version: 6.00 Build 0)  -->
<svg version="1.1" id="Capa_1" xmlns="http://www.w3.org/2000/svg" xmlns:xlink="http://www.w3.org/1999/xlink" x="0px" y="0px"
	 viewBox="0 0 496 496" style="enable-background:new 0 0 496 496;" xml:space="preserve">
<path d="M248,0C111.248,0,0,111.248,0,248s111.248,248,248,248s248-111.248,248-248S384.752,0,248,0z M248,480
	C120.08,480,16,375.92,16,248S120.08,16,248,16s232,104.08,232,232S375.92,480,248,480z"/>
<path d="M416,383.632c31.024-38.36,48-85.952,48-135.632c0-51.304-18.008-98.464-48-135.552V112h-0.352
	c-9.432-11.608-20.04-22.216-31.648-31.648V80h-0.448C346.464,50.008,299.304,32,248,32c-49.672,0-97.272,16.976-135.632,48H112
	v0.296c-3.648,2.968-7.248,6.016-10.728,9.232l10.872,11.736c2.008-1.864,4.168-3.496,6.248-5.264H128v32H96v-9.608
	c1.768-2.072,3.408-4.24,5.264-6.248l-11.736-10.872c-3.224,3.48-6.264,7.072-9.232,10.728H80v0.368
	C48.976,150.728,32,198.328,32,248c0,51.304,18.008,98.464,48,135.552V384h0.352c9.432,11.608,20.04,22.216,31.648,31.648V416h0.448
	c37.096,29.992,84.248,48,135.552,48c49.672,0,97.272-16.976,135.632-48H384v-0.296c3.648-2.968,7.248-6.016,10.728-9.232
	l-10.872-11.736c-2.016,1.856-4.176,3.496-6.248,5.264H368v-32h32v9.608c-1.768,2.072-3.408,4.24-5.264,6.248l11.736,10.872
	c3.224-3.48,6.264-7.072,9.232-10.728H416V383.632z M416,320h18.576c-4.896,12.688-11.152,24.824-18.576,36.32V352V320z M400,272v32
	h-32v-32H400z M416,272h30.392c-1.304,10.872-3.352,21.592-6.392,32.016V304h-24V272z M352,80h-32V61.464
	c11.176,4.328,21.896,9.592,32,15.776V80z M304,80h-32V49.488c10.96,1.32,21.648,3.52,32,6.544V80z M272,96h32v32h-32V96z M320,96
	h32v32h-32V96z M352,144v32h-32v-32H352z M368,144h32v32h-32V144z M416,139.688c7.352,11.368,13.584,23.52,18.536,36.312H416v-32
	V139.688z M400,192v32h-32v-32H400z M416,192h23.96c3.024,10.352,5.232,21.04,6.544,32H416V192z M400,118.232V128h-32V96h9.768
	C385.744,102.824,393.176,110.256,400,118.232z M224,128h-32V96h32V128z M224,80h-32V56h-0.016
	c10.424-3.04,21.144-5.08,32.016-6.392V80z M144,77.272c10.208-6.232,20.896-11.56,32-15.848V80h-32V77.272z M144,96h32v32h-32V96z
	 M176,144v32h-32v-32H176z M128,144v32H96v-32H128z M96,224v-32h32v32H96z M80,176H61.424C66.32,163.312,72.576,151.176,80,139.68
	V144V176z M80,192v32H49.608c1.312-10.872,3.352-21.592,6.392-32.016V192H80z M144,416h32v18.536
	c-11.176-4.328-21.896-9.592-32-15.776V416z M192,416h32v30.512c-10.96-1.32-21.648-3.52-32-6.544V416z M224,400h-32v-32h32V400z
	 M176,400h-32v-32h32V400z M144,352v-32h32v32H144z M128,352H96v-32h32V352z M80,356.312c-7.352-11.368-13.584-23.52-18.536-36.312
	H80v32V356.312z M96,304v-32h32v32H96z M80,304H56.04c-3.024-10.352-5.232-21.04-6.544-32H80V304z M96,377.768V368h32v32h-9.768
	C110.256,393.176,102.824,385.744,96,377.768z M240,447.8V328h-16v24h-32v-32h10.776v-16H192v-12.888h-16V304h-32v-32h24v-16H48.2
	c-0.104-2.656-0.2-5.32-0.2-8c0-2.688,0.264-5.328,0.376-8H168v-16h-24v-32h32v12.2h16V192h12.6v-16H192v-32h32v24h16V48.376
	c2.672-0.112,5.312-0.376,8-0.376c2.68,0,5.344,0.096,8,0.2V168h16v-24h32v32h-11.784v16H304v12.2h16V192h32v32h-24v16h119.8
	c0.104,2.656,0.2,5.32,0.2,8c0,2.688-0.264,5.328-0.376,8H328v16h24v32h-32v-12.888h-16V304h-12.856v16H304v32h-32v-24h-16v119.624
	c-2.672,0.112-5.312,0.376-8,0.376C245.32,448,242.656,447.904,240,447.8z M352,320v32h-32v-32H352z M352,418.728
	c-10.208,6.232-20.896,11.56-32,15.848V416h32V418.728z M304.016,440c-10.424,3.04-21.144,5.08-32.016,6.392V416h32v24H304.016z
	 M272,400v-32h32v32H272z M352,400h-32v-32h32V400z M368,352v-32h32v32H368z"/>
<path style="fill:#F0BC5E;" d="M248,336c-11.904,0-22.984-5.248-30.544-14.264c-11.664,0.976-23.256-3.088-31.68-11.504
	c-8.416-8.416-12.536-19.96-11.504-31.68C165.248,270.984,160,259.904,160,248s5.248-22.984,14.264-30.544
	c-1.032-11.72,3.096-23.264,11.504-31.68c8.424-8.424,20.008-12.512,31.68-11.504C225.016,165.248,236.096,160,248,160
	c11.904,0,22.984,5.248,30.544,14.264c11.656-1,23.256,3.088,31.68,11.504c8.416,8.416,12.536,19.96,11.504,31.68
	C330.752,225.016,336,236.096,336,248c0,11.904-5.248,22.984-14.264,30.544c1.032,11.72-3.096,23.264-11.504,31.68
	c-8.424,8.424-20.032,12.48-31.68,11.504C270.984,330.752,259.904,336,248,336z"/>
<path d="M248,288c-10.68,0-20.728-4.168-28.28-11.72C212.168,268.736,208,258.696,208,248s4.168-20.736,11.72-28.288
	C227.264,212.168,237.304,208,248,208c10.696,0,20.736,4.168,28.288,11.72C283.832,227.272,288,237.32,288,248
	s-4.168,20.728-11.72,28.28S258.68,288,248,288z M248,224c-6.416,0-12.44,2.496-16.96,7.032C226.496,235.56,224,241.584,224,248
	c0,6.416,2.496,12.44,7.032,16.96c9.064,9.08,24.872,9.072,33.936,0.008C269.504,260.44,272,254.408,272,248
	s-2.496-12.44-7.032-16.968C260.44,226.496,254.416,224,248,224z"/>
<g>
</g>
<g>
</g>
<g>
</g>
<g>
</g>
<g>
</g>
<g>
</g>
<g>
</g>
<g>
</g>
<g>
</g>
<g>
</g>
<g>
</g>
<g>
</g>
<g>
</g>
<g>
</g>
<g>
</g>
</svg>
