<?xml version="1.0" encoding="iso-8859-1"?>
<!-- Generator: Adobe Illustrator 19.0.0, SVG Export Plug-In . SVG Version: 6.00 Build 0)  -->
<svg version="1.1" id="Capa_1" xmlns="http://www.w3.org/2000/svg" xmlns:xlink="http://www.w3.org/1999/xlink" x="0px" y="0px"
	 viewBox="0 0 495.999 495.999" style="enable-background:new 0 0 495.999 495.999;" xml:space="preserve">
<path style="fill:#F0BC5E;" d="M195.999,159.999L195.999,159.999c-13.256,0-24,10.744-24,24v112h48v-112
	C219.999,170.743,209.255,159.999,195.999,159.999z"/>
<path d="M267.519,88.351c-2.376-29.792-18.328-56.552-43.976-72.576l-23.296-14.56c-2.464-1.544-5.576-1.616-8.12-0.216
	c-2.552,1.416-4.128,4.096-4.128,7c0,15.696-10,29.568-24.888,34.528l-11.28,3.76c-19.528,6.504-33.08,23.696-35.36,43.776
	c-14.184,4.84-24.472,18.136-24.472,33.936c0,5.384,1.168,10.576,3.472,15.432l14.456-6.856c-1.28-2.696-1.928-5.576-1.928-8.576
	c0-11.032,8.976-20,20-20h36v-16h-31.008c2.76-12.248,11.616-22.44,23.896-26.528l11.28-3.76
	c17.08-5.696,29.688-19.528,34.112-36.352l12.784,7.984c20.84,13.024,34.016,34.568,36.432,58.656h-7.496v16h20
	c11.024,0,20,8.968,20,20c0,3-0.648,5.88-1.92,8.56l14.456,6.872c2.296-4.848,3.464-10.032,3.464-15.432
	C299.999,105.351,285.695,90.151,267.519,88.351z"/>
<rect x="179.999" y="87.999" width="16" height="16"/>
<path style="fill:#F0BC5E;" d="M105.255,127.999c-25.168,0-46.968,18.776-50.696,43.664l-18.48,123.152l111.92,1.184l3.12-139.664
	C142.375,138.855,124.807,127.999,105.255,127.999z"/>
<path d="M435.999,415.999c-13.232,0-24,10.768-24,24s10.768,24,24,24s24-10.768,24-24S449.231,415.999,435.999,415.999z
	 M435.999,447.999c-4.408,0-8-3.584-8-8s3.592-8,8-8s8,3.584,8,8S440.407,447.999,435.999,447.999z"/>
<path d="M459.999,365.871V189.343c19.352-9.192,32-28.84,32-50.552c0-28.104-23.096-80-56-80s-56,51.896-56,80
	c0,21.72,12.648,41.368,32,50.552v176.528l-24.624,43.088c-4.824,8.456-7.376,18.064-7.376,27.792v3.248c0,30.872,25.12,56,56,56
	s56-25.128,56-56v-3.248c0-9.728-2.552-19.336-7.376-27.792L459.999,365.871z M475.999,439.999c0,22.056-17.944,40-40,40
	s-40-17.944-40-40v-3.248c0-6.944,1.824-13.816,5.272-19.848l26.728-46.776V178.343l-5.336-1.88
	c-15.944-5.648-26.664-20.792-26.664-37.672c0-23.504,19.768-64,40-64s40,40.496,40,64c0,16.88-10.72,32.024-26.664,37.672
	l-5.336,1.88v191.784l26.728,46.776c3.448,6.032,5.272,12.904,5.272,19.848V439.999z"/>
<path d="M427.999,161.375c-7.968-2.824-16-10.896-16-22.584c0-14.496,9.864-35.592,18.344-44.072l11.304,11.328
	c-5.384,5.384-13.648,22.192-13.648,32.744c0,4.432,3.36,6.808,5.344,7.504L427.999,161.375z"/>
<path d="M187.999,215.999h-16v-32c0-13.232,10.768-24,24-24v16c-4.408,0-8,3.584-8,8V215.999z"/>
<rect x="171.999" y="231.999" width="16" height="16"/>
<rect x="75.898" y="238.175" transform="matrix(-0.1485 0.9889 -0.9889 -0.1485 339.7104 199.8428)" width="15.84" height="16"/>
<path d="M95.071,225.183l-15.824-2.376l6.96-46.408c1.64-10.896,12.944-18.472,23.712-15.832l-3.848,15.528
	c-1.832-0.472-3.768,0.84-4.04,2.68L95.071,225.183z"/>
<path style="fill:#F0BC5E;" d="M337.439,171.663c-3.728-24.888-25.528-43.664-50.696-43.664c-19.544,0-37.12,10.856-45.856,28.336
	l3.112,139.664l111.912-1.184L337.439,171.663z"/>
<rect x="267.999" y="231.999" width="16" height="16"/>
<path d="M283.999,215.999h-16v-32c0-13.232,10.768-24,24-24v16c-4.408,0-8,3.584-8,8V215.999z"/>
<path d="M387.999,287.999h-136v-104c0-30.872-25.12-56-56-56s-56,25.128-56,56v104h-136v16h17.752l8,32h22.648
	c4.008,44.208,40.824,79.024,85.856,79.912l-16.016,80.088h147.52l-16.016-80.088c45.024-0.888,81.848-35.704,85.856-79.912h22.648
	l8-32h17.752h8v-16H387.999z M155.999,183.999c0-22.056,17.944-40,40-40s40,17.944,40,40v104h-80V183.999z M141.759,479.999l12.8-64
	h82.88l12.8,64H141.759z M349.751,319.999h-41.752v16h15.528c-4,35.944-34.536,64-71.528,64h-112c-36.992,0-67.536-28.056-71.528-64
	h223.528v-16H42.247l-4-16h315.504L349.751,319.999z"/>
<g>
</g>
<g>
</g>
<g>
</g>
<g>
</g>
<g>
</g>
<g>
</g>
<g>
</g>
<g>
</g>
<g>
</g>
<g>
</g>
<g>
</g>
<g>
</g>
<g>
</g>
<g>
</g>
<g>
</g>
</svg>
