<?xml version="1.0" encoding="iso-8859-1"?>
<!-- Generator: Adobe Illustrator 19.0.0, SVG Export Plug-In . SVG Version: 6.00 Build 0)  -->
<svg version="1.1" id="Capa_1" xmlns="http://www.w3.org/2000/svg" xmlns:xlink="http://www.w3.org/1999/xlink" x="0px" y="0px"
	 viewBox="0 0 496 496" style="enable-background:new 0 0 496 496;" xml:space="preserve">
<path d="M371.128,40c-44.24,0-85.568,23.744-107.864,61.952L248,128.128l-15.264-26.168C210.44,63.744,169.112,40,124.872,40
	C56.016,40,0,96.016,0,164.872c0,29.144,2.896,58.408,8.616,86.984l1.888,9.44c11.352,56.776,42.64,107.456,88.168,143.128
	C96.984,408.776,96,413.4,96,418.096C96,438.992,113,456,133.904,456h3.28c11.376,0,22.272-5.272,29.424-14.08
	C192.736,451.248,220.112,456,248,456s55.264-4.752,81.392-14.08c7.152,8.816,18.048,14.08,29.424,14.08h3.28
	C383,456,400,438.992,400,418.096c0-4.696-0.984-9.32-2.672-13.672c45.528-35.672,76.816-86.352,88.168-143.12l1.888-9.44
	c5.72-28.584,8.616-57.848,8.616-86.992C496,96.016,439.984,40,371.128,40z M154.616,431.368c-4.12,5.408-10.632,8.632-17.432,8.632
	h-3.28C121.832,440,112,430.168,112,418.096c0-4.768,1.592-9.488,4.48-13.272l19.472-25.56l10.392,10.392l11.312-11.312
	l-11.92-11.92l64.28-84.368c1.312,3.88,3.248,7.552,5.736,10.824L237.936,322L154.616,431.368z M277.064,373.352
	c-19.152,3.496-38.976,3.496-58.128,0L248,335.208L277.064,373.352z M177,428.392l31.208-40.968C221.24,390.432,234.608,392,248,392
	s26.76-1.568,39.792-4.568L319,428.4C273.144,443.528,222.856,443.528,177,428.392z M469.808,258.16
	c-10.48,52.424-39.248,99.2-80.992,132.456l-29.152-38.264c32.52-26.208,54.92-62.792,63.072-103.584l1.888-9.464
	c2-10.016,3.616-20.232,4.8-30.376l-15.888-1.856c-1.136,9.72-2.68,19.504-4.6,29.096l-1.888,9.472
	c-7.392,36.96-27.672,70.136-57.088,93.984l-55.208-72.464l-12.728,9.704l12.896,16.92l-12.568,12.568l11.312,11.312l11.04-11.04
	l52.488,68.888l-10.84,10.84l11.312,11.312l9.312-9.312l12.552,16.472c2.888,3.8,4.48,8.512,4.48,13.28
	C384,430.168,374.168,440,362.096,440h-3.28c-6.792,0-13.312-3.224-17.424-8.632L228.48,283.184c-2.888-3.8-4.48-8.512-4.48-13.28
	c0-2.864,0.592-5.616,1.624-8.176l0.352-0.456l-0.168-0.128c1.184-2.712,2.936-5.184,5.184-7.28l-10.896-11.72
	c-3.344,3.112-5.928,6.856-7.944,10.872l-66.08,86.632c-29.44-23.856-49.728-57.048-57.128-94.032l-1.872-9.416
	c-1.408-7.04-2.624-14.2-3.6-21.296l-15.848,2.2c1.024,7.4,2.296,14.88,3.768,22.224l1.872,9.416
	c8.16,40.8,30.576,77.4,63.112,103.624L107.2,390.624c-41.76-33.256-70.528-80.032-81.008-132.464l-1.888-9.44
	c-3.736-18.68-6.12-37.672-7.336-56.72H32v-16H16.272C16.176,172.288,16,168.584,16,164.872c0-35.28,16.944-66.608,43.048-86.52
	l15.296,15.296l11.312-11.312L72.68,69.36C88.184,60.856,105.968,56,124.872,56c38.576,0,74.608,20.696,94.04,54.016l22.176,38.016
	c2.864,4.92,10.952,4.92,13.824,0l22.176-38.016C296.52,76.696,332.552,56,371.128,56C431.16,56,480,104.84,480,164.872
	c0,3.704-0.176,7.416-0.272,11.128H464v16h15.032c-1.216,19.048-3.592,38.04-7.328,56.72L469.808,258.16z"/>
<path d="M124.872,104C91.312,104,64,131.304,64,164.872c0,6.504,0.168,13.032,0.504,19.536l15.976-0.832
	c-0.32-6.232-0.48-12.472-0.48-18.704C80,140.136,100.136,120,124.872,120c15.896,0,30.744,8.528,38.744,22.256l26.704,45.776
	l13.824-8.064l-26.704-45.776C166.584,115.568,146.448,104,124.872,104z"/>
<path d="M432,164.872C432,131.304,404.688,104,371.128,104c-21.568,0-41.712,11.568-52.576,30.2l-17.592,30.168l-2.096,4.128
	l14.264,7.248l19.24-33.488c8.008-13.728,22.856-22.256,38.76-22.256C395.864,120,416,140.136,416,164.872
	c0,3.624-0.056,7.248-0.168,10.88l15.992,0.488C431.944,172.456,432,168.656,432,164.872z"/>
<rect x="148.691" y="80.001" transform="matrix(-0.7071 0.7071 -0.7071 -0.7071 335.3671 37.088)" width="22.624" height="16"/>
<rect x="87.998" y="332.689" transform="matrix(-0.7071 0.7071 -0.7071 -0.7071 407.1234 519.3655)" width="16" height="22.624"/>
<rect x="44.688" y="240.003" transform="matrix(-0.7071 0.7071 -0.7071 -0.7071 270.9627 383.77)" width="22.624" height="16"/>
<rect x="343.997" y="68.677" transform="matrix(-0.7071 0.7071 -0.7071 -0.7071 657.4567 -112.3499)" width="16" height="22.624"/>
<rect x="412.686" y="95.968" transform="matrix(-0.7071 0.7071 -0.7071 -0.7071 797.327 -122.3276)" width="22.624" height="16"/>
<rect x="188.71" y="319.997" transform="matrix(-0.7071 0.7071 -0.7071 -0.7071 573.3884 418.4884)" width="22.624" height="16"/>
<rect x="388.644" y="336.003" transform="matrix(-0.7071 0.7071 -0.7071 -0.7071 926.014 304.4373)" width="22.624" height="16"/>
<rect x="431.998" y="236.693" transform="matrix(-0.7071 0.7071 -0.7071 -0.7071 926.4901 112.2449)" width="16" height="22.624"/>
<rect x="236.716" y="407.993" transform="matrix(-0.7071 0.7071 -0.7071 -0.7071 717.5616 534.7618)" width="22.624" height="16"/>
<path style="fill:#F0BC5E;" d="M304.016,219.248C313.544,213.52,320,203.184,320,191.28c0-12.48-6.928-23.696-18.088-29.272
	L224.8,123.464c-4.512-2.272-9.576-3.464-14.632-3.464h-1.448c-18.04,0-32.72,14.68-32.72,32.72
	c0,11.656,6.096,22.152,15.984,28.032C182.456,186.48,176,196.816,176,208.72c0,12.48,6.928,23.696,18.088,29.272l77.112,38.544
	c4.512,2.272,9.576,3.464,14.632,3.464h1.448c18.04,0,32.72-14.68,32.72-32.72C320,235.624,313.904,225.136,304.016,219.248z"/>
<g>
</g>
<g>
</g>
<g>
</g>
<g>
</g>
<g>
</g>
<g>
</g>
<g>
</g>
<g>
</g>
<g>
</g>
<g>
</g>
<g>
</g>
<g>
</g>
<g>
</g>
<g>
</g>
<g>
</g>
</svg>
