<?xml version="1.0" encoding="iso-8859-1"?>
<!-- Generator: Adobe Illustrator 19.0.0, SVG Export Plug-In . SVG Version: 6.00 Build 0)  -->
<svg version="1.1" id="Capa_1" xmlns="http://www.w3.org/2000/svg" xmlns:xlink="http://www.w3.org/1999/xlink" x="0px" y="0px"
	 viewBox="0 0 496 496" style="enable-background:new 0 0 496 496;" xml:space="preserve">
<path d="M479.712,436.224c0.192-1.392,0.288-2.808,0.288-4.224c0-17.648-14.352-32-32-32c-0.4,0-0.776,0.104-1.176,0.12
	c0.696-2.608,1.176-5.296,1.176-8.12c0-11.656-6.416-22.2-16.288-27.776c0.192-1.392,0.288-2.808,0.288-4.224
	c0-17.648-14.352-32-32-32c-0.4,0-0.776,0.104-1.176,0.12c0.696-2.608,1.176-5.296,1.176-8.12c0-11.656-6.416-22.2-16.288-27.776
	c0.192-1.392,0.288-2.808,0.288-4.224c0-17.648-14.352-32-32-32c-10.44,0-19.64,5.096-25.488,12.856l9.408-67.752L336,200
	c0-20.344-12.736-37.728-30.64-44.704C309.464,149.92,312,143.28,312,136c0-11.656-6.416-22.2-16.288-27.776
	c0.192-1.392,0.288-2.808,0.288-4.224c0-17.648-14.352-32-32-32c-0.4,0-0.776,0.104-1.176,0.12C263.52,69.512,264,66.824,264,64
	c0-11.656-6.416-22.2-16.288-27.776C247.904,34.832,248,33.416,248,32c0-17.648-14.352-32-32-32s-32,14.352-32,32
	c0,1.416,0.096,2.832,0.288,4.224C174.416,41.8,168,52.344,168,64c0,2.824,0.48,5.512,1.176,8.12C168.776,72.104,168.4,72,168,72
	s-0.776,0.104-1.176,0.12C167.52,69.512,168,66.824,168,64c0-11.656-6.416-22.2-16.288-27.776C151.904,34.832,152,33.416,152,32
	c0-17.648-14.352-32-32-32S88,14.352,88,32c0,1.416,0.096,2.832,0.288,4.224C78.416,41.8,72,52.344,72,64
	c0,2.824,0.48,5.512,1.176,8.12C72.776,72.104,72.4,72,72,72c-17.648,0-32,14.352-32,32c0,1.416,0.096,2.832,0.288,4.224
	C30.416,113.8,24,124.344,24,136c0,7.28,2.536,13.92,6.64,19.296C12.736,162.272,0,179.656,0,200l41.032,296H294.96l10.504-75.632
	C309.96,422.704,314.912,424,320,424c0.4,0,0.776-0.104,1.176-0.12C320.48,426.488,320,429.176,320,432
	c0,1.416,0.096,2.832,0.288,4.224C310.416,441.8,304,452.344,304,464c0,17.648,14.352,32,32,32c5.64,0,11.144-1.52,16-4.368
	c4.856,2.848,10.36,4.368,16,4.368c17.648,0,32-14.352,32-32c0-11.656-6.416-22.2-16.288-27.776
	c0.192-1.392,0.288-2.808,0.288-4.224c0-2.824-0.48-5.512-1.176-8.12c0.4,0.016,0.776,0.12,1.176,0.12c5.64,0,11.144-1.52,16-4.368
	c4.856,2.848,10.36,4.368,16,4.368c0.4,0,0.776-0.104,1.176-0.12C416.48,426.488,416,429.176,416,432
	c0,1.416,0.096,2.832,0.288,4.224C406.416,441.8,400,452.344,400,464c0,17.648,14.352,32,32,32c5.64,0,11.144-1.52,16-4.368
	c4.856,2.848,10.36,4.368,16,4.368c17.648,0,32-14.352,32-32C496,452.344,489.584,441.8,479.712,436.224z M331.848,304.64
	l8.688-2.352l-3.36-8.352C336.4,291.992,336,289.992,336,288c0-8.824,7.176-16,16-16s16,7.176,16,16c0,1.992-0.4,3.992-1.176,5.936
	l-3.36,8.352l8.688,2.352C379.128,306.528,384,312.848,384,320c0,8.824-7.176,16-16,16c-4.968,0-8.528-2.264-10.648-4.168
	L352,327.008l-5.352,4.824c-2.12,1.904-5.68,4.168-10.648,4.168c-8.824,0-16-7.176-16-16
	C320,312.848,324.872,306.528,331.848,304.64z M368.288,364.224C358.416,369.8,352,380.344,352,392c0,2.824,0.48,5.512,1.176,8.12
	c-0.4-0.016-0.776-0.12-1.176-0.12s-0.776,0.104-1.176,0.12c0.696-2.608,1.176-5.296,1.176-8.12c0-11.656-6.416-22.2-16.288-27.776
	c0.192-1.392,0.288-2.808,0.288-4.224c0-2.824-0.48-5.512-1.176-8.12c0.4,0.016,0.776,0.12,1.176,0.12c5.64,0,11.144-1.52,16-4.368
	c4.856,2.848,10.36,4.368,16,4.368c0.4,0,0.776-0.104,1.176-0.12C368.48,354.488,368,357.176,368,360
	C368,361.416,368.096,362.832,368.288,364.224z M264,88c8.824,0,16,7.176,16,16c0,1.992-0.4,3.992-1.176,5.936l-3.36,8.352
	l8.688,2.352C291.128,122.528,296,128.848,296,136c0,8.824-7.176,16-16,16c-4.968,0-8.528-2.264-10.648-4.168L264,143.008
	l-5.352,4.824c-2.12,1.904-5.68,4.168-10.648,4.168c-8.824,0-16-7.176-16-16c0-7.152,4.872-13.472,11.848-15.36l8.688-2.352
	l-3.36-8.352C248.4,107.992,248,105.992,248,104C248,95.176,255.176,88,264,88z M252.696,167.616
	c-1.696,1.848-3.304,3.784-4.696,5.88c-1.416-2.136-3.064-4.096-4.792-5.976c1.576,0.232,3.152,0.48,4.792,0.48
	C249.584,168,251.152,167.848,252.696,167.616z M221.6,154.04c-3.264-0.968-6.664-1.568-10.168-1.816
	C214.264,147.448,216,141.944,216,136c0-11.656-6.416-22.2-16.288-27.776c0.192-1.392,0.288-2.808,0.288-4.224
	c0-2.824-0.48-5.512-1.176-8.12C199.224,95.896,199.6,96,200,96c5.64,0,11.144-1.52,16-4.368C220.856,94.48,226.36,96,232,96
	c0.4,0,0.776-0.104,1.176-0.12C232.48,98.488,232,101.176,232,104c0,1.416,0.096,2.832,0.288,4.224
	C222.416,113.8,216,124.344,216,136C216,142.688,218.08,148.896,221.6,154.04z M195.848,48.64l8.688-2.352l-3.36-8.352
	C200.4,35.992,200,33.992,200,32c0-8.824,7.176-16,16-16s16,7.176,16,16c0,1.992-0.4,3.992-1.176,5.936l-3.36,8.352l8.688,2.352
	C243.128,50.528,248,56.848,248,64c0,8.824-7.176,16-16,16c-4.968,0-8.528-2.264-10.648-4.168L216,71.008l-5.352,4.824
	C208.528,77.736,204.968,80,200,80c-8.824,0-16-7.176-16-16C184,56.848,188.872,50.528,195.848,48.64z M168,88
	c8.824,0,16,7.176,16,16c0,1.992-0.4,3.992-1.176,5.936l-3.36,8.352l8.688,2.352C195.128,122.528,200,128.848,200,136
	c0,8.824-7.176,16-16,16c-4.968,0-8.528-2.264-10.648-4.168L168,143.008l-5.352,4.824c-2.12,1.904-5.68,4.168-10.648,4.168
	c-8.824,0-16-7.176-16-16c0-7.152,4.872-13.472,11.848-15.36l8.688-2.352l-3.36-8.352C152.4,107.992,152,105.992,152,104
	C152,95.176,159.176,88,168,88z M173.984,166.288c-2.2,2.216-4.248,4.592-5.984,7.208c-1.736-2.616-3.784-4.984-5.984-7.208
	c2.064-0.696,4.08-1.544,5.984-2.656C169.896,164.744,171.912,165.592,173.984,166.288z M124.568,152.216
	c-3.512,0.248-6.912,0.856-10.176,1.816C117.92,148.896,120,142.688,120,136c0-11.656-6.416-22.2-16.288-27.776
	c0.192-1.392,0.288-2.808,0.288-4.224c0-2.824-0.48-5.512-1.176-8.12C103.224,95.896,103.6,96,104,96c5.64,0,11.144-1.52,16-4.368
	C124.856,94.48,130.36,96,136,96c0.4,0,0.776-0.104,1.176-0.12C136.48,98.488,136,101.176,136,104c0,1.416,0.096,2.832,0.288,4.224
	C126.416,113.8,120,124.344,120,136C120,141.944,121.736,147.448,124.568,152.216z M99.848,48.64l8.688-2.352l-3.36-8.352
	C104.4,35.992,104,33.992,104,32c0-8.824,7.176-16,16-16s16,7.176,16,16c0,1.992-0.4,3.992-1.176,5.936l-3.36,8.352l8.688,2.352
	C147.128,50.528,152,56.848,152,64c0,8.824-7.176,16-16,16c-4.968,0-8.528-2.264-10.648-4.168L120,71.008l-5.352,4.824
	C112.528,77.736,108.968,80,104,80c-8.824,0-16-7.176-16-16C88,56.848,92.872,50.528,99.848,48.64z M51.848,120.64l8.688-2.352
	l-3.36-8.352C56.4,107.992,56,105.992,56,104c0-8.824,7.176-16,16-16s16,7.176,16,16c0,1.992-0.4,3.992-1.176,5.936l-3.36,8.352
	l8.688,2.352C99.128,122.528,104,128.848,104,136c0,8.824-7.176,16-16,16c-4.968,0-8.528-2.264-10.648-4.168L72,143.008
	l-5.352,4.824C64.528,149.736,60.968,152,56,152c-8.824,0-16-7.176-16-16C40,128.848,44.872,122.528,51.848,120.64z M92.792,167.512
	c-1.736,1.88-3.376,3.84-4.792,5.976c-1.392-2.096-3-4.032-4.696-5.88C84.856,167.848,86.416,168,88,168
	C89.64,168,91.216,167.752,92.792,167.512z M281.032,480h-40.576l4.856-87.44l0.232-3.272l-15.96-1.128L224.432,480H176v-72h-16v72
	h-40.64l-7.392-88.664l-15.944,1.328l7.28,87.336H54.968L16,199.48C16.288,182.072,30.528,168,48,168c17.648,0,32,14.352,32,32
	h0.024v0.664l6,72l15.944-1.328L96,200c0-17.648,14.352-32,32-32s32,14.352,32,32v48h16v-48c0-17.648,14.352-32,32-32
	c17.616,0,31.944,14.304,31.992,31.92l-3.976,71.64l15.976,0.888L256,200c0-17.648,14.352-32,32-32c17.472,0,31.712,14.072,32,31.48
	l-17.88,128.712C285.36,329.184,272,343,272,360c0,1.416,0.096,2.832,0.288,4.224C262.416,369.8,256,380.344,256,392
	c0,17.648,14.352,32,32,32c0.272,0,0.544-0.048,0.816-0.056L281.032,480z M320,408c-4.968,0-8.528-2.264-10.648-4.168L304,399.008
	l-5.352,4.824c-2.12,1.904-5.68,4.168-10.648,4.168c-8.824,0-16-7.176-16-16c0-7.152,4.872-13.472,11.848-15.36l8.688-2.352
	l-3.36-8.352C288.4,363.992,288,361.992,288,360c0-8.824,7.176-16,16-16s16,7.176,16,16c0,1.992-0.4,3.992-1.176,5.936l-3.36,8.352
	l8.688,2.352C331.128,378.528,336,384.848,336,392C336,400.824,328.824,408,320,408z M384,464c0,8.824-7.176,16-16,16
	c-4.968,0-8.528-2.264-10.648-4.168L352,471.008l-5.352,4.824c-2.12,1.904-5.68,4.168-10.648,4.168c-8.824,0-16-7.176-16-16
	c0-7.152,4.872-13.472,11.848-15.36l8.688-2.352l-3.36-8.352C336.4,435.992,336,433.992,336,432c0-8.824,7.176-16,16-16
	s16,7.176,16,16c0,1.992-0.4,3.992-1.176,5.936l-3.36,8.352l8.688,2.352C379.128,450.528,384,456.848,384,464z M416,408
	c-4.968,0-8.528-2.264-10.648-4.168L400,399.008l-5.352,4.824c-2.12,1.904-5.68,4.168-10.648,4.168c-8.824,0-16-7.176-16-16
	c0-7.152,4.872-13.472,11.848-15.36l8.688-2.352l-3.36-8.352C384.4,363.992,384,361.992,384,360c0-8.824,7.176-16,16-16
	s16,7.176,16,16c0,1.992-0.4,3.992-1.176,5.936l-3.36,8.352l8.688,2.352C427.128,378.528,432,384.848,432,392
	C432,400.824,424.824,408,416,408z M464,480c-4.968,0-8.528-2.264-10.648-4.168L448,471.008l-5.352,4.824
	c-2.12,1.904-5.68,4.168-10.648,4.168c-8.824,0-16-7.176-16-16c0-7.152,4.872-13.472,11.848-15.36l8.688-2.352l-3.36-8.352
	C432.4,435.992,432,433.992,432,432c0-8.824,7.176-16,16-16s16,7.176,16,16c0,1.992-0.4,3.992-1.176,5.936l-3.36,8.352l8.688,2.352
	C475.128,450.528,480,456.848,480,464C480,472.824,472.824,480,464,480z"/>
<rect x="344" y="448" width="16" height="16"/>
<rect x="440" y="448" width="16" height="16"/>
<rect x="344" y="304" width="16" height="16"/>
<rect x="296" y="376" width="16" height="16"/>
<rect x="392" y="376" width="16" height="16"/>
<path style="fill:#F0BC5E;" d="M168,416c-61.76,0-112-39.48-112-88s50.24-88,112-88s112,39.48,112,88S229.76,416,168,416z"/>
<rect x="104" y="296" width="128" height="16"/>
<rect x="216" y="344" width="16" height="16"/>
<rect x="104" y="344" width="96" height="16"/>
<rect x="112" y="48" width="16" height="16"/>
<rect x="208" y="48" width="16" height="16"/>
<rect x="256" y="120" width="16" height="16"/>
<rect x="160" y="120" width="16" height="16"/>
<rect x="64" y="120" width="16" height="16"/>
<g>
</g>
<g>
</g>
<g>
</g>
<g>
</g>
<g>
</g>
<g>
</g>
<g>
</g>
<g>
</g>
<g>
</g>
<g>
</g>
<g>
</g>
<g>
</g>
<g>
</g>
<g>
</g>
<g>
</g>
</svg>
