<?xml version="1.0" encoding="iso-8859-1"?>
<!-- Generator: Adobe Illustrator 19.0.0, SVG Export Plug-In . SVG Version: 6.00 Build 0)  -->
<svg version="1.1" id="Capa_1" xmlns="http://www.w3.org/2000/svg" xmlns:xlink="http://www.w3.org/1999/xlink" x="0px" y="0px"
	 viewBox="0 0 496 496" style="enable-background:new 0 0 496 496;" xml:space="preserve">
<path d="M488,422.24V408c0-14.232-7.664-27.512-20-34.64l-8,13.84c7.4,4.28,12,12.248,12,20.8v8H224v16h248c4.408,0,8,3.584,8,8v16
	c0,13.232-10.768,24-24,24H184c-13.232,0-24-10.768-24-24v-16c0-4.416,3.592-8,8-8h40v-16h-40v-8c0-8.544,4.6-16.512,12-20.8
	l-8-13.84c-12.336,7.128-20,20.408-20,34.64v14.24c-4.872,4.392-8,10.696-8,17.76v16c0,22.056,17.944,40,40,40h272
	c22.056,0,40-17.944,40-40v-16C496,432.936,492.872,426.64,488,422.24z"/>
<path d="M424,208h-80v-8c0-7.032-1.848-13.952-5.36-20.008l-13.84,8.016c2.088,3.624,3.2,7.768,3.2,11.992v8H216H24v-8
	c0-4.224,1.112-8.368,3.2-11.992l-13.84-8.016C9.848,186.048,8,192.968,8,200v14.24c-4.872,4.4-8,10.696-8,17.76v16
	c0,22.056,17.944,40,40,40h104v8c0,7.064,3.128,13.36,8,17.76V328c0,14.232,7.664,27.512,20,34.64l8-13.84
	c-7.4-4.288-12-12.256-12-20.8v-8h256v-16H168c-4.408,0-8-3.584-8-8v-16c0-30.872,25.12-56,56-56h208c30.88,0,56,25.128,56,56v16
	c0,4.416-3.592,8-8,8h-32v16h32v8c0,8.544-4.6,16.512-12,20.8l8.008,13.84C480.336,355.512,488,342.232,488,328v-14.24
	c4.872-4.392,8-10.696,8-17.76v-16C496,240.296,463.696,208,424,208z M144.472,272H40c-13.232,0-24-10.768-24-24v-16
	c0-4.416,3.592-8,8-8h146.848C156.456,235.624,146.624,252.664,144.472,272z"/>
<path d="M192,280c0-13.232,10.768-24,24-24v-16c-22.056,0-40,17.944-40,40H192z"/>
<path d="M8,105.76V120c0,7.032,1.848,13.952,5.36,20.008l13.84-8.016C25.112,128.368,24,124.224,24,120v-8h304v8
	c0,4.224-1.112,8.368-3.2,11.992l13.84,8.016c3.512-6.056,5.36-12.976,5.36-20.008v-14.24c4.872-4.392,8-10.696,8-17.76V72
	c0-39.704-32.304-72-72-72H72C32.304,0,0,32.296,0,72v16C0,95.064,3.128,101.36,8,105.76z M16,72c0-30.872,25.12-56,56-56h208
	c30.88,0,56,25.128,56,56v16c0,4.416-3.592,8-8,8H24c-4.408,0-8-3.584-8-8V72z"/>
<path d="M72,48V32c-22.056,0-40,17.944-40,40h16C48,58.768,58.768,48,72,48z"/>
<rect x="88" y="32" width="16" height="16"/>
<rect x="232" y="240" width="16" height="16"/>
<g>
	<path style="fill:#F0BC5E;" d="M320,192H32c-17.648,0-32-14.352-32-32s14.352-32,32-32h288c17.648,0,32,14.352,32,32
		S337.648,192,320,192z"/>
	<path style="fill:#F0BC5E;" d="M440,400c-7.384,0-14.4-2.528-20-7.032c-11.2,9-28.8,9-40,0c-11.2,9-28.8,9-40,0
		c-11.2,9-28.8,9-40,0c-11.2,9-28.8,9-40,0c-11.2,9-28.8,9-40,0c-5.6,4.504-12.616,7.032-20,7.032c-17.648,0-32-14.352-32-32
		s14.352-32,32-32c7.384,0,14.4,2.528,20,7.032c11.2-9,28.8-9,40,0c11.2-9,28.8-9,40,0c11.2-9,28.8-9,40,0c11.2-9,28.8-9,40,0
		c11.2-9,28.8-9,40,0c5.6-4.504,12.616-7.032,20-7.032c17.648,0,32,14.352,32,32S457.648,400,440,400z"/>
</g>
<g>
</g>
<g>
</g>
<g>
</g>
<g>
</g>
<g>
</g>
<g>
</g>
<g>
</g>
<g>
</g>
<g>
</g>
<g>
</g>
<g>
</g>
<g>
</g>
<g>
</g>
<g>
</g>
<g>
</g>
</svg>
