<?xml version="1.0" encoding="iso-8859-1"?>
<!-- Generator: Adobe Illustrator 19.0.0, SVG Export Plug-In . SVG Version: 6.00 Build 0)  -->
<svg version="1.1" id="Capa_1" xmlns="http://www.w3.org/2000/svg" xmlns:xlink="http://www.w3.org/1999/xlink" x="0px" y="0px"
	 viewBox="0 0 496 496" style="enable-background:new 0 0 496 496;" xml:space="preserve">
<g>
	<rect x="376.009" y="200" style="fill:#F0BC5E;" width="32" height="64"/>
	<rect x="88.009" y="200" style="fill:#F0BC5E;" width="32" height="64"/>
</g>
<path d="M248.065,178.24c-10.344,0-15.872-3.536-20.32-6.384c-3.64-2.32-6.04-3.856-11.712-3.856h-8.024v-16h8.024
	c10.344,0,15.88,3.536,20.328,6.384c3.632,2.32,6.032,3.856,11.696,3.856c5.656,0,8.048-1.528,11.672-3.856
	c4.448-2.848,9.976-6.384,20.312-6.384h7.968v16h-7.968c-5.656,0-8.048,1.528-11.672,3.856
	C263.929,174.704,258.401,178.24,248.065,178.24z"/>
<g>
	<path style="fill:#F0BC5E;" d="M108.009,488h71.704c11.648,0,21.52-8.568,23.168-20.096l0.56-3.904h-3.432
		c-15.984,0-15.984-10.24-31.968-10.24S152.057,464,136.065,464c-16.016,0-16.016-10.24-32.024-10.24
		c-16.016,0-16.016,10.24-32.032,10.24h-3.16C76.137,478.24,90.921,488,108.009,488z"/>
	<path style="fill:#F0BC5E;" d="M388.009,488c17.088,0,31.872-9.76,39.16-24h-3.16c-15.984,0-15.984-10.24-31.968-10.24
		c-15.984,0-15.984,10.24-31.976,10.24c-16.016,0-16.016-10.24-32.024-10.24c-16.016,0-16.016,10.24-32.032,10.24h-3.432l0.56,3.904
		c1.648,11.528,11.52,20.096,23.168,20.096H388.009z"/>
	<circle style="fill:#F0BC5E;" cx="248.009" cy="248" r="16"/>
	<circle style="fill:#F0BC5E;" cx="248.009" cy="320" r="16"/>
</g>
<rect x="184.009" y="96" width="16" height="16"/>
<path d="M388.009,496h-71.696c-15.528,0-28.896-11.592-31.088-26.96l-8.608-60.224C274.593,394.664,262.297,384,248.009,384
	s-26.584,10.664-28.608,24.816l-8.6,60.224c-2.2,15.368-15.568,26.96-31.096,26.96h-71.696c-28.672,0-52-23.328-52-52
	s23.328-52,52-52c7.632,0,14.024-5.472,15.216-13l16.896-107H64.009c-11.248,0-22.032-4.776-29.608-13.104
	c-7.56-8.32-11.288-19.544-10.208-30.8C26.129,207.856,44.217,192,65.385,192h86.648c-15.6-20.656-24.024-45.656-24.024-72
	c0-66.168,53.832-120,120-120c6.664,0,13.48,0.624,20.84,1.912l10.568,1.848l-4.792,9.6c-1.736,3.488-2.616,7.072-2.616,10.64
	c0,8.768,4.896,16.832,12.768,21.048l8.032,4.304l-5.312,7.408c-4.896,6.84-7.488,14.88-7.488,23.24c0,22.056,17.944,40,40,40
	c2.376,0,4.864-0.24,7.392-0.72l7.552-1.416l1.712,7.496c2.184,9.544,10.168,16.904,19.864,18.32l9.128,1.328l-2.608,8.848
	c-4.064,13.784-10.568,26.72-19.128,38.144h86.704c21.168,0,39.256,15.856,41.184,36.104c1.072,11.248-2.648,22.48-10.208,30.8
	c-7.552,8.32-18.344,13.096-29.592,13.096h-76.112l16.888,106.992c1.2,7.536,7.592,13.008,15.224,13.008c28.672,0,52,23.328,52,52
	S416.681,496,388.009,496z M248.009,368c22.2,0,41.312,16.568,44.44,38.544l8.608,60.224c1.08,7.544,7.632,13.232,15.256,13.232
	h71.696c19.848,0,36-16.152,36-36s-16.152-36-36-36c-15.552,0-28.6-11.152-31.024-26.504L337.177,256h94.832
	c6.744,0,13.224-2.864,17.768-7.864c4.6-5.064,6.776-11.632,6.12-18.512C454.737,217.496,443.641,208,430.633,208h-123.92
	l14.008-13.72c10.704-10.472,19.032-23.224,24.384-37.248c-9.664-3.92-17.544-11.544-21.736-21.144
	c-32.592,2.008-59.36-23.904-59.36-55.888c0-8.984,2.136-17.696,6.216-25.584c-8.92-7.52-14.216-18.576-14.216-30.416
	c0-2.544,0.256-5.08,0.76-7.584c-2.992-0.272-5.904-0.416-8.76-0.416c-57.344,0-104,46.656-104,104
	c0,28.16,11.112,54.528,31.288,74.28L189.305,208H65.385c-13.008,0-24.104,9.504-25.264,21.616
	c-0.656,6.872,1.512,13.456,6.12,18.512C50.785,253.136,57.265,256,64.009,256h94.832l-19.816,125.496
	C136.609,396.848,123.561,408,108.009,408c-19.848,0-36,16.152-36,36s16.152,36,36,36h71.696c7.616,0,14.176-5.688,15.256-13.224
	l8.6-60.224C206.697,384.568,225.809,368,248.009,368z"/>
<g>
</g>
<g>
</g>
<g>
</g>
<g>
</g>
<g>
</g>
<g>
</g>
<g>
</g>
<g>
</g>
<g>
</g>
<g>
</g>
<g>
</g>
<g>
</g>
<g>
</g>
<g>
</g>
<g>
</g>
</svg>
