<?xml version="1.0" encoding="iso-8859-1"?>
<!-- Generator: Adobe Illustrator 19.0.0, SVG Export Plug-In . SVG Version: 6.00 Build 0)  -->
<svg version="1.1" id="Capa_1" xmlns="http://www.w3.org/2000/svg" xmlns:xlink="http://www.w3.org/1999/xlink" x="0px" y="0px"
	 viewBox="0 0 496 496" style="enable-background:new 0 0 496 496;" xml:space="preserve">
<path style="fill:#F0BC5E;" d="M328,256H168c-13.232,0-24,10.768-24,24v72h208v-72C352,266.768,341.232,256,328,256z"/>
<path d="M400,352.408V229.336L384,208v-45.048c0-39.776-4.888-79.504-14.536-118.088C362.856,18.448,339.224,0,312,0
	s-50.856,18.448-57.464,44.864c-2.504,10.024-4.672,20.128-6.536,30.288c-1.864-10.16-4.032-20.264-6.536-30.28
	C234.856,18.448,211.224,0,184,0s-50.856,18.448-57.464,44.864C116.888,83.448,112,123.176,112,162.952V208l-16,21.336v123.072
	C42.392,356.52,0,401.36,0,456c0,22.056,17.944,40,40,40h416c22.056,0,40-17.944,40-40C496,401.36,453.608,356.52,400,352.408z
	 M270.056,48.744C274.88,29.472,292.128,16,312,16s37.12,13.472,41.944,32.744C363.272,86.056,368,124.488,368,162.952v23.712
	l-24,32l-24-32l-24,32l-24-32L256,208v-45.048C256,124.488,260.728,86.056,270.056,48.744z M128,162.952
	c0-38.472,4.728-76.896,14.056-114.208C146.88,29.472,164.128,16,184,16s37.12,13.472,41.944,32.744
	C235.272,86.056,240,124.488,240,162.952V208l-16-21.336l-24,32l-24-32l-24,32l-24-32V162.952z M128,213.336l24,32l24-32l24,32
	l24-32l24,32l24-32l24,32l24-32l24,32l24-32l16,21.328V352H112V234.664L128,213.336z M456,480H40c-13.232,0-24-10.768-24-24
	c0-48.52,39.48-88,88-88h72v56h16v-56h48v40h16v-40h48v56h16v-56h72c48.52,0,88,39.48,88,88C480,469.232,469.232,480,456,480z"/>
<path d="M32,456h16c0-30.872,25.12-56,56-56v-16C64.304,384,32,416.296,32,456z"/>
<rect x="179.993" y="36.398" transform="matrix(-0.7071 0.7071 -0.7071 -0.7071 374.6603 -3.2014)" width="16" height="79.191"/>
<rect x="179.992" y="108.438" transform="matrix(-0.7071 0.7071 -0.7071 -0.7071 425.5983 119.7778)" width="16" height="79.191"/>
<rect x="307.998" y="36.402" transform="matrix(-0.7071 0.7071 -0.7071 -0.7071 593.1804 -93.709)" width="16" height="79.191"/>
<rect x="307.997" y="108.409" transform="matrix(-0.7071 0.7071 -0.7071 -0.7071 644.0958 29.2155)" width="16" height="79.191"/>
<rect x="240" y="424" width="16" height="16"/>
<rect x="120" y="384" width="16" height="16"/>
<g>
</g>
<g>
</g>
<g>
</g>
<g>
</g>
<g>
</g>
<g>
</g>
<g>
</g>
<g>
</g>
<g>
</g>
<g>
</g>
<g>
</g>
<g>
</g>
<g>
</g>
<g>
</g>
<g>
</g>
</svg>
