<?xml version="1.0" encoding="iso-8859-1"?>
<!-- Generator: Adobe Illustrator 19.0.0, SVG Export Plug-In . SVG Version: 6.00 Build 0)  -->
<svg version="1.1" id="Capa_1" xmlns="http://www.w3.org/2000/svg" xmlns:xlink="http://www.w3.org/1999/xlink" x="0px" y="0px"
	 viewBox="0 0 496 496" style="enable-background:new 0 0 496 496;" xml:space="preserve">
<path style="fill:#F0BC5E;" d="M301.76,320c0-4.256,3.224-10.24,6.336-16.04c4.832-8.952,10.288-19.112,7.024-29.168
	c-3.392-10.424-14.032-15.504-23.416-19.992c-5.736-2.744-11.664-5.576-13.952-8.728c-2.344-3.216-3.224-9.8-4.08-16.16
	c-1.376-10.24-2.936-21.848-11.704-28.224c-8.68-6.32-20.136-4.24-30.232-2.408c-6.376,1.152-12.952,2.344-16.856,1.08
	c-3.56-1.16-8.016-5.84-12.32-10.384c-7.216-7.6-15.4-16.216-26.552-16.216s-19.336,8.616-26.552,16.216
	c-1.92,2.024-3.864,4.04-5.76,5.8c-1.512,12.648-10.384,22.96-22.248,26.64c6.352,12.08,4.6,27.304-5.56,37.464
	s-25.384,11.912-37.464,5.56C74.376,278.472,62.36,288,48,288c-2.424,0-4.752-0.336-7.008-0.856l-3.48,3.144
	c1.544,4.656,4.008,9.232,6.392,13.664c3.12,5.8,6.336,11.792,6.336,16.048s-3.224,10.24-6.336,16.04
	c-4.832,8.952-10.288,19.112-7.024,29.168c3.392,10.424,14.032,15.504,23.416,19.992c5.736,2.744,11.664,5.576,13.952,8.728
	c2.344,3.216,3.224,9.8,4.08,16.16c1.376,10.24,2.936,21.848,11.704,28.224c8.68,6.32,20.136,4.232,30.232,2.408
	c6.384-1.144,12.96-2.328,16.856-1.08c3.568,1.16,8.016,5.84,12.328,10.384c7.208,7.6,15.4,16.216,26.544,16.216
	s19.336-8.616,26.544-16.216c4.312-4.536,8.76-9.224,12.328-10.384c3.912-1.248,10.496-0.064,16.856,1.08
	c10.104,1.832,21.544,3.896,30.24-2.408c8.76-6.384,10.32-17.984,11.696-28.224c0.848-6.368,1.736-12.944,4.08-16.168
	c2.288-3.144,8.208-5.976,13.944-8.712c9.392-4.496,20.032-9.576,23.424-20.016c3.264-10.056-2.192-20.2-7.024-29.168
	C304.984,330.24,301.76,324.256,301.76,320z M176,384c-35.344,0-64-28.656-64-64s28.656-64,64-64s64,28.656,64,64
	S211.344,384,176,384z"/>
<path d="M176,248c-39.704,0-72,32.296-72,72s32.296,72,72,72s72-32.296,72-72S215.704,248,176,248z M176,376
	c-30.872,0-56-25.128-56-56s25.128-56,56-56s56,25.128,56,56S206.872,376,176,376z"/>
<path d="M496,168c0-15.424-6.224-29.848-17.264-40.384c4.288-14.648,2.472-30.256-5.24-43.616
	c-7.712-13.352-20.32-22.736-35.152-26.344C434.736,42.824,425.36,30.216,412,22.512c-13.36-7.72-28.976-9.536-43.608-5.248
	C357.848,6.224,343.432,0,328,0c-15.424,0-29.848,6.224-40.392,17.264c-14.632-4.288-30.24-2.472-43.608,5.24
	c-13.36,7.712-22.736,20.32-26.344,35.152c-14.832,3.608-27.44,12.992-35.152,26.344c-7.712,13.36-9.528,28.968-5.24,43.616
	c-5.032,4.816-9.056,10.52-11.984,16.8c-13.128,0.856-26.4,3.232-39.584,7.192L120,153.312v15.848l3.984,2.312
	C131.504,175.832,136,183.504,136,192c0,10.48-6.808,19.64-16.928,22.784l-9.176,2.856l4.48,8.504
	c4.928,9.384,3.272,20.672-4.144,28.08c-7.416,7.408-18.704,9.072-28.08,4.144l-8.512-4.48l-2.848,9.176
	C67.64,273.192,58.488,280,48,280c-8.496,0-16.168-4.496-20.52-12.016L25.168,264H9.304l-1.712,5.696C2.552,286.472,0,303.4,0,320
	c0,97.048,78.952,176,176,176c93.448,0,170.088-73.224,175.648-165.304c6.256-2.928,11.944-6.944,16.744-11.968
	c14.64,4.296,30.248,2.472,43.608-5.24c13.36-7.72,22.736-20.32,26.344-35.152c14.832-3.608,27.432-12.984,35.152-26.344
	c7.712-13.36,9.528-28.968,5.24-43.616C489.776,197.848,496,183.424,496,168z M176,480c-88.224,0-160-71.776-160-160
	c0-11.688,1.408-23.568,4.184-35.464C27.512,291.84,37.36,296,48,296c12.648,0,24.112-5.912,31.496-15.528l-4.872,15l15.216,4.936
	l4.944-15.216l-15.128-4.912c1.096-1.448,2.112-2.976,3.016-4.584c13.728,3.856,28.528,0.176,38.864-10.168
	c10.344-10.344,14.016-25.168,10.168-38.864C144.112,219.696,152,206.632,152,192c0-10.64-4.16-20.488-11.456-27.816
	C152.44,161.408,164.32,160,176,160c88.224,0,160,71.776,160,160S264.224,480,176,480z M269.776,152.4
	c3.816-3.648,7.072-7.8,9.72-12.392c2.656-4.592,4.624-9.496,5.88-14.624c5.128-1.256,10.032-3.224,14.624-5.872
	c4.592-2.656,8.752-5.912,12.4-9.728c10.144,2.96,21.064,2.96,31.2,0c3.648,3.816,7.808,7.072,12.4,9.728
	c4.592,2.656,9.504,4.624,14.624,5.872c1.256,5.136,3.216,10.032,5.872,14.624c2.656,4.6,5.912,8.752,9.728,12.392
	C384.752,157.464,384,162.688,384,168s0.752,10.536,2.224,15.6c-3.816,3.648-7.072,7.8-9.736,12.4
	c-2.648,4.592-4.608,9.488-5.864,14.624c-5.136,1.256-10.032,3.224-14.624,5.872c-4.592,2.656-8.752,5.912-12.4,9.728
	c-6.48-1.888-13.312-2.512-20.048-1.976c-13.488-20.712-31.2-38.408-51.92-51.88c0.12-1.464,0.368-2.92,0.368-4.368
	C272,162.688,271.248,157.464,269.776,152.4z M464.496,199.568l-4.792,3.72l2.288,5.616c4.704,11.56,3.84,24.352-2.36,35.096
	c-6.2,10.744-16.848,17.88-29.216,19.584l-6.008,0.824l-0.824,6.008c-1.704,12.368-8.84,23.016-19.584,29.216
	c-10.752,6.216-23.536,7.064-35.096,2.36l-5.608-2.288l-3.728,4.792c-2.248,2.896-4.88,5.424-7.768,7.584
	c-1.144-25.728-7.864-50.016-18.936-71.736c3.488,0.432,6.928,1.288,10.216,2.624l5.624,2.296l3.72-4.792
	c3.192-4.12,7.096-7.52,11.584-10.112c4.472-2.584,9.36-4.256,14.528-4.968l6.008-0.824l0.832-6
	c0.72-5.184,2.392-10.08,4.968-14.552c2.6-4.496,6.008-8.392,10.128-11.584l4.8-3.72l-2.296-5.624C401,178.248,400,173.176,400,168
	s1-10.248,2.968-15.08l2.296-5.624l-4.8-3.72c-4.12-3.192-7.52-7.088-10.12-11.576c-2.584-4.472-4.256-9.368-4.976-14.552l-0.832-6
	l-6.008-0.824c-5.168-0.704-10.056-2.384-14.536-4.976c-4.488-2.584-8.376-5.992-11.576-10.112l-3.728-4.792l-5.616,2.296
	c-9.656,3.928-20.496,3.928-30.16,0l-5.616-2.296l-3.728,4.792c-3.2,4.128-7.096,7.528-11.576,10.112
	c-4.488,2.592-9.384,4.264-14.544,4.976l-6.008,0.816l-0.832,6.016c-0.704,5.176-2.376,10.064-4.968,14.544
	c-2.584,4.488-5.992,8.384-10.112,11.576l-4.8,3.72l2.296,5.624c1.336,3.272,2.056,6.688,2.488,10.144
	c-21.68-11.032-45.92-17.72-71.592-18.864c2.16-2.888,4.68-5.52,7.584-7.768l4.792-3.72l-2.288-5.616
	c-4.704-11.56-3.84-24.352,2.36-35.096s16.848-17.88,29.216-19.584l6.008-0.832l0.824-6c1.704-12.368,8.84-23.016,19.584-29.216
	c10.752-6.192,23.536-7.056,35.096-2.352l5.608,2.288l3.728-4.784C304.088,21.656,315.592,16,328,16s23.912,5.656,31.568,15.512
	l3.728,4.784l5.608-2.288c11.552-4.704,24.352-3.848,35.096,2.352c10.744,6.2,17.88,16.848,19.584,29.216l0.824,6l6.008,0.832
	c12.368,1.704,23.016,8.84,29.216,19.584s7.064,23.536,2.36,35.096l-2.288,5.616l4.792,3.72C474.344,144.096,480,155.6,480,168
	S474.344,191.904,464.496,199.568z"/>
<rect x="168" y="216" width="16" height="16"/>
<rect x="76.681" y="341.648" transform="matrix(-0.9511 0.309 -0.309 -0.9511 273.263 656.014)" width="15.999" height="15.999"/>
<rect x="111.581" y="389.652" transform="matrix(-0.5878 0.809 -0.809 -0.5878 511.5664 534.6541)" width="15.992" height="16"/>
<rect x="168" y="408" width="16" height="16"/>
<rect x="224.444" y="389.658" transform="matrix(-0.8088 0.5881 -0.5881 -0.8088 654.3016 582.5754)" width="16" height="15.992"/>
<rect x="259.302" y="341.634" transform="matrix(-0.3086 0.9512 -0.9512 -0.3086 682.3601 203.2736)" width="16" height="16"/>
<rect x="259.275" y="282.314" transform="matrix(-0.9511 0.309 -0.309 -0.9511 611.1806 483.8249)" width="15.999" height="15.999"/>
<rect x="224.409" y="234.365" transform="matrix(-0.5877 0.8091 -0.8091 -0.5877 565.088 196.7623)" width="16" height="16"/>
<g>
</g>
<g>
</g>
<g>
</g>
<g>
</g>
<g>
</g>
<g>
</g>
<g>
</g>
<g>
</g>
<g>
</g>
<g>
</g>
<g>
</g>
<g>
</g>
<g>
</g>
<g>
</g>
<g>
</g>
</svg>
