<?xml version="1.0" encoding="iso-8859-1"?>
<!-- Generator: Adobe Illustrator 19.0.0, SVG Export Plug-In . SVG Version: 6.00 Build 0)  -->
<svg version="1.1" id="Capa_1" xmlns="http://www.w3.org/2000/svg" xmlns:xlink="http://www.w3.org/1999/xlink" x="0px" y="0px"
	 viewBox="0 0 496 496" style="enable-background:new 0 0 496 496;" xml:space="preserve">
<path d="M384.724,10.704l-3.08-1.232C365.94,3.184,349.396,0,332.468,0c-42.672,0-82.96,20.736-107.768,55.456L224.316,56h-21.048
	c-27.008,0-51.288,15-63.36,39.16c-4.896,9.784-7.48,20.736-7.48,31.672V136h16v-9.168c0-8.464,2-16.944,5.792-24.52
	c4.096-8.2,10.08-14.928,17.192-20.016l35.36,35.36l11.312-11.312l-31.64-31.64C191.788,72.992,197.428,72,203.26,72h21.848
	l83.24,83.24c-0.336,7.288-1.856,14.344-4.352,21.024l-18.416-18.408l-11.312,11.312l22.016,22.016
	c-2.384,3.464-5.104,6.744-8.144,9.784l-1.376,1.368l11.296,11.328l1.384-1.376c15.832-15.832,24.616-36.8,24.912-59.136
	l4.552-20.488c6.496-29.232,27.112-52.968,55.152-63.48c12.192-4.568,20.368-16.368,20.368-29.368
	C404.428,26.92,396.692,15.488,384.724,10.704z M378.46,54.192c-6.736,2.528-12.992,5.848-18.936,9.592l-10.088-10.08
	l-11.312,11.312l8.344,8.344c-16.48,14.384-28.264,33.752-33.168,55.832l-1.528,6.856l-72.816-72.816
	c3.6-4.864,7.608-9.32,11.864-13.512l27.944,27.944l11.312-11.312l-27.08-27.08C282.876,24.464,307.132,16,332.468,16
	c14.88,0,29.432,2.8,43.232,8.328l3.08,1.232c5.856,2.344,9.648,7.936,9.648,14.256C388.428,46.176,384.42,51.96,378.46,54.192z"/>
<path d="M384.084,426.832c-28.048-10.512-48.664-34.248-55.16-63.488l-4.552-20.488c-0.296-22.344-9.08-43.312-24.912-59.144
	l-1.376-1.376l-11.312,11.312l1.376,1.376c3.04,3.04,5.76,6.32,8.152,9.792l-41.528,41.528l11.312,11.312l37.92-37.92
	c2.496,6.68,4.016,13.736,4.352,21.024L225.116,424h-21.848c-5.84,0-11.472-0.992-16.816-2.704l31.64-31.64l-11.312-11.312
	l-35.36,35.36c-7.112-5.096-13.096-11.824-17.192-20.016c-3.8-7.576-5.8-16.064-5.8-24.52V360h-16v9.168
	c0,10.928,2.584,21.88,7.48,31.68C151.972,424.992,176.26,440,203.26,440h21.048l0.384,0.536
	C249.508,475.264,289.796,496,332.468,496c16.912,0,33.464-3.184,49.176-9.472l3.072-1.224c11.976-4.792,19.712-16.216,19.712-29.12
	C404.428,443.184,396.252,431.384,384.084,426.832z M378.78,470.448l-3.072,1.224c-13.816,5.52-28.368,8.328-43.24,8.328
	c-25.336,0-49.592-8.464-69.464-23.264l8.328-8.328l-11.312-11.312l-9.192,9.192c-4.256-4.192-8.264-8.648-11.864-13.512
	l72.816-72.816l1.52,6.848c4.904,22.08,16.688,41.448,33.168,55.832l-27.696,27.696l11.312,11.312l29.44-29.44
	c5.944,3.744,12.208,7.064,18.944,9.592c5.96,2.248,9.96,8.024,9.96,14.384C388.428,462.504,384.636,468.104,378.78,470.448z"/>
<path style="fill:#F0BC5E;" d="M162.988,368c-30.728,0-57.704-21.808-64.144-51.848c-9.696-45.216-9.696-91.08,0-136.296
	C105.284,149.808,132.26,128,162.988,128c12.984,0,25.568,3.816,36.384,11.016l78.864,52.576
	c18.904,12.6,30.192,33.688,30.192,56.408s-11.288,43.808-30.184,56.408l-78.864,52.576C188.564,364.184,175.972,368,162.988,368z"
	/>
<rect x="321.517" y="37.892" transform="matrix(-0.7071 0.7071 -0.7071 -0.7071 594.4 -156.0405)" width="16" height="14.384"/>
<rect x="257.225" y="142.015" transform="matrix(-0.7073 0.707 -0.707 -0.7073 557.9907 66.5081)" width="16.001" height="13.537"/>
<path d="M186.852,208.704c-28.736-5.776-55.128-8.704-78.424-8.704v-16c24.352,0,51.8,3.032,81.576,9.016L186.852,208.704z"/>
<path d="M297.276,247.352c-0.224-0.096-22.592-9.632-55.272-20.016l4.84-15.248c33.48,10.64,55.8,20.168,56.728,20.568
	L297.276,247.352z"/>
<path d="M108.428,312v-16c15.648,0,32.808-1.328,50.992-3.952l2.28,15.84C142.756,310.616,124.836,312,108.428,312z"/>
<path d="M175.092,305.768L172.372,290c4.864-0.832,9.696-1.744,14.48-2.704l3.16,15.688
	C185.084,303.976,180.1,304.896,175.092,305.768z"/>
<path d="M246.852,283.912l-4.84-15.248c32.68-10.384,55.048-19.92,55.272-20.016l6.296,14.704
	C302.644,263.752,280.324,273.272,246.852,283.912z"/>
<rect x="272.82" y="420.782" transform="matrix(-0.7071 0.7071 -0.7071 -0.7071 780.5358 534.2552)" width="13.6" height="16"/>
<rect x="100.428" y="240" width="32" height="16"/>
<rect x="164.428" y="240" width="56" height="16"/>
<g>
</g>
<g>
</g>
<g>
</g>
<g>
</g>
<g>
</g>
<g>
</g>
<g>
</g>
<g>
</g>
<g>
</g>
<g>
</g>
<g>
</g>
<g>
</g>
<g>
</g>
<g>
</g>
<g>
</g>
</svg>
