<?xml version="1.0" encoding="iso-8859-1"?>
<!-- Generator: Adobe Illustrator 19.0.0, SVG Export Plug-In . SVG Version: 6.00 Build 0)  -->
<svg version="1.1" id="Capa_1" xmlns="http://www.w3.org/2000/svg" xmlns:xlink="http://www.w3.org/1999/xlink" x="0px" y="0px"
	 viewBox="0 0 496 496" style="enable-background:new 0 0 496 496;" xml:space="preserve">
<g>
	<path style="fill:#F0BC5E;" d="M448,416c0,22.056,17.944,40,40,40v-80C465.944,376,448,393.944,448,416z"/>
	<path style="fill:#F0BC5E;" d="M312,440c-26.472,0-48,21.528-48,48h96C360,461.528,338.472,440,312,440z"/>
	<path style="fill:#F0BC5E;" d="M368,416c-13.232,0-24-10.768-24-24s10.768-24,24-24s24,10.768,24,24S381.232,416,368,416z"/>
	<path style="fill:#F0BC5E;" d="M408,320c-17.648,0-32-14.352-32-32s14.352-32,32-32s32,14.352,32,32S425.648,320,408,320z"/>
	<path style="fill:#F0BC5E;" d="M56,112v80c0,8.84,7.16,16,16,16s16-7.16,16-16v-40c0-8.84,7.16-16,16-16s16,7.16,16,16v64
		c0,8.84,7.16,16,16,16s16-7.16,16-16V112H56z"/>
</g>
<path d="M416,184l-24.184-18.136l-74.888,60.488l5.288,6.248c2.64,3.112,5.784,8.312,5.784,15.4c0,13.232-10.768,24-24,24
	c-7.384,0-14.28-3.44-18.904-9.432l-0.232-0.304C296.456,253.496,304,239.632,304,224c0-16.688-8.568-31.392-21.52-40
	c12.96-8.608,21.52-23.312,21.52-40c0-12.304-4.688-23.496-12.32-32H304V72c0-39.696-32.304-72-72-72H72C32.304,0,0,32.304,0,72v40
	h12.32C4.688,120.504,0,131.696,0,144c0,16.688,8.568,31.392,21.52,40C8.568,192.608,0,207.312,0,224
	c0,12.304,4.688,23.496,12.32,32H0v40c0,22.056,17.944,40,40,40h141.176L176,340.176V392h8c13.232,0,24,10.768,24,24
	s-10.768,24-24,24h-8v56h320V344C496,281.384,466.096,221.568,416,184z M304,288c22.056,0,40-17.944,40-40
	c0-6.608-1.712-13.136-4.92-18.976l53.104-42.888L406.4,196.8c43.944,32.96,70.944,84.536,73.36,139.2H206.632l71.424-57.688
	C285.248,284.536,294.352,288,304,288z M16,72c0-30.88,25.12-56,56-56h160c30.88,0,56,25.12,56,56v24H16V72z M16,224
	c0-17.648,14.352-32,32-32h8v-16h-8c-17.648,0-32-14.352-32-32s14.352-32,32-32h208c17.648,0,32,14.352,32,32s-14.352,32-32,32h-24
	v16h24c17.648,0,32,14.352,32,32s-14.352,32-32,32H48C30.352,256,16,241.648,16,224z M40,320c-13.232,0-24-10.768-24-24v-24h32h208
	c1.592,0,3.16-0.088,4.712-0.24L200.984,320H40z M192,480v-24.808c18.232-3.72,32-19.872,32-39.192s-13.768-35.48-32-39.192V352h288
	v128H192z"/>
<rect x="152" y="176" width="64" height="16"/>
<rect x="88" y="176" width="32" height="16"/>
<rect x="96" y="32" width="16" height="16"/>
<rect x="144" y="32" width="16" height="16"/>
<rect x="192" y="32" width="16" height="16"/>
<rect x="216" y="64" width="16" height="16"/>
<rect x="168" y="64" width="16" height="16"/>
<rect x="120" y="64" width="16" height="16"/>
<rect x="72" y="64" width="16" height="16"/>
<rect x="240" y="368" width="16" height="16"/>
<rect x="272" y="408" width="16" height="16"/>
<rect x="400" y="448" width="16" height="16"/>
<rect x="416" y="376" width="16" height="16"/>
<g>
</g>
<g>
</g>
<g>
</g>
<g>
</g>
<g>
</g>
<g>
</g>
<g>
</g>
<g>
</g>
<g>
</g>
<g>
</g>
<g>
</g>
<g>
</g>
<g>
</g>
<g>
</g>
<g>
</g>
</svg>
