<?xml version="1.0" encoding="iso-8859-1"?>
<!-- Generator: Adobe Illustrator 19.0.0, SVG Export Plug-In . SVG Version: 6.00 Build 0)  -->
<svg version="1.1" id="Capa_1" xmlns="http://www.w3.org/2000/svg" xmlns:xlink="http://www.w3.org/1999/xlink" x="0px" y="0px"
	 viewBox="0 0 496 496" style="enable-background:new 0 0 496 496;" xml:space="preserve">
<g>
	<path style="fill:#F0BC5E;" d="M256,200v96c0,8.84,7.16,16,16,16s16-7.16,16-16v-24c0-8.84,7.16-16,16-16s16,7.16,16,16v104
		c0,8.84,7.16,16,16,16s16-7.16,16-16V256c0-8.84,7.16-16,16-16s16,7.16,16,16v168c0,8.84,7.16,16,16,16s16-7.16,16-16V200H256z"/>
	<circle style="fill:#F0BC5E;" cx="272" cy="344" r="16"/>
</g>
<path d="M385.832,192.096C392.176,184.472,396,174.68,396,164c0-9.464-3.128-18.84-8.808-26.4l-35.992-48
	c-4.504-6.008-11.68-9.6-19.2-9.6s-14.696,3.592-19.192,9.6l-25.544,34.056C278.856,116.408,267.944,112,256,112h-0.168
	c-0.864-21.504-5.84-65.616-31-90.776L208.928,5.56C205.28,1.976,200.464,0,195.352,0C184.68,0,176,8.68,176,19.344v2.48
	c0,17.128-10.776,32.672-26.816,38.68c-21.56,8.088-36.264,28.6-37.152,51.496H112c-26.472,0-48,21.528-48,48
	c0,14.6,6.576,27.68,16.888,36.488C34.24,210.008,0,253.04,0,304v60c0,49.384,39.136,89.68,88,91.8V472c0,13.232,10.768,24,24,24
	h272c61.76,0,112-50.24,112-112v-80C496,242.856,446.736,193.08,385.832,192.096z M325.608,99.192c2.984-4,9.792-4,12.792,0l36,48
	c3.608,4.816,5.6,10.784,5.6,16.8c0,15.44-12.56,28-28,28h-40c-5.904,0-11.432-1.864-16.168-5.248
	C300.984,179.104,304,169.896,304,160c0-8.592-2.296-16.648-6.272-23.64L325.608,99.192z M216.08,192l-36.504-15.16l-6.296-3.152
	c-13.128-6.56-21.28-19.76-21.28-34.432c0-10.288,4.008-19.952,11.272-27.224l20.32-20.32C194.168,81.144,200,67.08,200,52.12
	V38.784l1.664,4.44c8.928,23.824,9.424,50.232,1.384,74.352C201.024,123.64,200,129.944,200,136.32c0,22.592,12.552,42.896,32.76,53
	l6.504,2.68H216.08z M240,120v8h16c17.648,0,32,14.352,32,32c0,12.064-6.784,22.456-16.664,27.912l-27.752-11.072l-3.664-1.832
	C225.168,167.64,216,152.816,216,136.32c0-4.656,0.752-9.256,2.216-13.68c9.2-27.592,8.64-57.792-1.568-85.032l-0.88-2.344
	C233.488,55.4,240,91.736,240,120z M80,160c0-17.648,14.352-32,32-32h16v-13.824c0-17.128,10.776-32.672,26.816-38.68
	c12.56-4.712,22.656-13.72,29.184-24.88v1.504c0,10.688-4.168,20.736-11.72,28.288l-20.32,20.32
	C141.664,111.016,136,124.704,136,139.264c0,20.776,11.544,39.456,30.128,48.744l6.808,3.376l1.472,0.616H112
	C94.352,192,80,177.648,80,160z M104,472v-16.872c45.064-5.912,80-44.472,80-91.128v-28h-16v28c0,41.904-34.096,76-76,76
	s-76-34.096-76-76v-60c0-52.936,43.064-96,96-96s96,43.064,96,96v80c0,52.936-43.064,96-96,96C107.584,480,104,476.408,104,472z
	 M480,384c0,52.936-43.064,96-96,96H169.392C202.04,460.408,224,424.768,224,384v-80c0-40.768-21.96-76.408-54.608-96h43.504
	l0.216,0.088l0.032-0.088H256h56h40h32c52.936,0,96,43.064,96,96V384z"/>
<path d="M184,304c0-39.696-32.296-72-72-72s-72,32.304-72,72v32h16v-32c0-30.88,25.128-56,56-56s56,25.12,56,56v16h16V304z"/>
<path d="M112,272c-17.648,0-32,14.352-32,32v48h16v-48c0-8.824,7.176-16,16-16s16,7.176,16,16v60c0,19.848-16.152,36-36,36
	s-36-16.152-36-36v-12H40v12c0,28.672,23.328,52,52,52s52-23.328,52-52v-60C144,286.352,129.648,272,112,272z"/>
<rect x="328" y="112" width="16" height="16"/>
<rect x="352" y="144" width="16" height="16"/>
<rect x="312" y="160" width="16" height="16"/>
<g>
</g>
<g>
</g>
<g>
</g>
<g>
</g>
<g>
</g>
<g>
</g>
<g>
</g>
<g>
</g>
<g>
</g>
<g>
</g>
<g>
</g>
<g>
</g>
<g>
</g>
<g>
</g>
<g>
</g>
</svg>
