<?xml version="1.0" encoding="iso-8859-1"?>
<!-- Generator: Adobe Illustrator 19.0.0, SVG Export Plug-In . SVG Version: 6.00 Build 0)  -->
<svg version="1.1" id="Capa_1" xmlns="http://www.w3.org/2000/svg" xmlns:xlink="http://www.w3.org/1999/xlink" x="0px" y="0px"
	 viewBox="0 0 496 496" style="enable-background:new 0 0 496 496;" xml:space="preserve">
<g>
	<path style="fill:#F0BC5E;" d="M304,278.496v88c0,8.84,7.16,16,16,16s16-7.16,16-16v-40c0-8.84,7.16-16,16-16s16,7.16,16,16v64
		c0,8.84,7.16,16,16,16s16-7.16,16-16v-112H304z"/>
	<path style="fill:#F0BC5E;" d="M166.84,104.896c-16.68-17.024-39.008-26.4-62.84-26.4H80v8c0,48.52,39.48,88,88,88L166.84,104.896z
		"/>
</g>
<path d="M496,430.496h-18.832H440v-208h-8.208c5.08-6.704,8.208-14.96,8.208-24c0-22.056-17.944-40-40-40
	c-3.168,0-6.208,0.464-9.16,1.16c0.696-2.952,1.16-5.992,1.16-9.16c0-22.056-17.944-40-40-40c-3.168,0-6.208,0.464-9.16,1.16
	c0.696-2.952,1.16-5.992,1.16-9.16c0-22.056-17.944-40-40-40c-18.96,0-34.8,13.288-38.896,31.024
	c-9.584-11.464-23.112-19.48-38.464-22.064c4.248-21.8,13.632-42.496,27.608-59.96l-12.496-9.992
	c-16.104,20.128-26.808,44.08-31.312,69.28C177.752,73.608,152,101.088,152,134.496c0,35.288,28.712,64,64,64s64-28.712,64-64
	c0-0.072-0.008-0.144-0.008-0.216c6.704,5.088,14.96,8.216,24.008,8.216c3.168,0,6.208-0.464,9.16-1.16
	c-0.696,2.952-1.16,5.992-1.16,9.16c0,22.056,17.944,40,40,40c3.168,0,6.208-0.464,9.16-1.16c-0.696,2.952-1.16,5.992-1.16,9.16
	c0,9.04,3.128,17.296,8.208,24H90.424l72.392-48.264c-7.8-0.456-15.336-1.888-22.464-4.256L56,226.216v204.28H18.832H0v16h27.144
	l24.92,48h391.872l24.92-48H496V430.496z M216,182.496c-26.472,0-48-21.528-48-48c0-23.896,17.568-43.712,40.456-47.344
	C208.208,90.664,208,94.184,208,97.72v12.776h16V97.72c0-3.488,0.184-6.968,0.448-10.432C246.896,91.296,264,110.912,264,134.496
	C264,160.968,242.472,182.496,216,182.496z M280,102.496c0-13.232,10.768-24,24-24s24,10.768,24,24s-10.768,24-24,24
	S280,115.728,280,102.496z M328,150.496c0-13.232,10.768-24,24-24s24,10.768,24,24s-10.768,24-24,24S328,163.728,328,150.496z
	 M376,198.496c0-13.232,10.768-24,24-24s24,10.768,24,24s-10.768,24-24,24S376,211.728,376,198.496z M72,318.496h232v-16H72v-16h32
	v-16H72v-32h352v32H120v16h304v144H72V318.496z M434.216,478.496H61.784l-16.616-32H450.84L434.216,478.496z"/>
<g>
</g>
<g>
</g>
<g>
</g>
<g>
</g>
<g>
</g>
<g>
</g>
<g>
</g>
<g>
</g>
<g>
</g>
<g>
</g>
<g>
</g>
<g>
</g>
<g>
</g>
<g>
</g>
<g>
</g>
</svg>
