<?xml version="1.0" encoding="iso-8859-1"?>
<!-- Generator: Adobe Illustrator 19.0.0, SVG Export Plug-In . SVG Version: 6.00 Build 0)  -->
<svg version="1.1" id="Capa_1" xmlns="http://www.w3.org/2000/svg" xmlns:xlink="http://www.w3.org/1999/xlink" x="0px" y="0px"
	 viewBox="0 0 496 496" style="enable-background:new 0 0 496 496;" xml:space="preserve">
<path style="fill:#F0BC5E;" d="M264,208v80v35.504c0,10.408,9.784,18.048,19.88,15.52C291,337.24,296,330.84,296,323.504v-63.016
	c0-7.344,5-13.744,12.12-15.52c10.096-2.52,19.88,5.112,19.88,15.528v31.016c0,10.408,9.784,18.048,19.88,15.52
	c7.12-1.784,12.12-8.184,12.12-15.52v-47.016c0-7.344,5-13.744,12.12-15.52c10.096-2.528,19.88,5.104,19.88,15.52v7.016
	c0,10.408,9.784,18.048,19.88,15.52c7.12-1.784,12.12-8.184,12.12-15.52v-23.016c0-7.344,5-13.744,12.12-15.52
	c10.096-2.528,19.88,5.104,19.88,15.52v47.016c0,10.408,9.784,18.048,19.88,15.52c7.12-1.784,12.12-8.184,12.12-15.52V168L264,208z"
	/>
<path d="M344.96,95.672L0,161.376V333.2l151.04,67.128L496,334.624V162.8L344.96,95.672z M461.384,164.928l-59.224,11.28
	l-118.344-52.6l59.224-11.28L461.384,164.928z M16,180.312L144,237.2v22.488L16,202.8V180.312z M152.96,223.672l-118.344-52.6
	l59.224-11.28l118.344,52.6L152.96,223.672z M239.76,207.136l-118.344-52.6l53.624-10.216l118.344,52.6L239.76,207.136z
	 M320.96,191.672l-118.344-52.6l53.624-10.216l118.344,52.6L320.96,191.672z M16,220.312L144,277.2v102.496L16,322.8V220.312z
	 M160,382.328V278.56l104-20.8v-16.32l-104,20.8v-23.624l320-60.952v143.712L160,382.328z"/>
<rect x="32" y="256" width="16" height="16"/>
<rect x="56" y="304" width="16" height="16"/>
<rect x="104" y="288" width="16" height="16"/>
<rect x="176" y="320" width="16" height="16"/>
<rect x="224" y="288" width="16" height="16"/>
<g>
</g>
<g>
</g>
<g>
</g>
<g>
</g>
<g>
</g>
<g>
</g>
<g>
</g>
<g>
</g>
<g>
</g>
<g>
</g>
<g>
</g>
<g>
</g>
<g>
</g>
<g>
</g>
<g>
</g>
</svg>
