<?xml version="1.0" encoding="iso-8859-1"?>
<!-- Generator: Adobe Illustrator 19.0.0, SVG Export Plug-In . SVG Version: 6.00 Build 0)  -->
<svg version="1.1" id="Capa_1" xmlns="http://www.w3.org/2000/svg" xmlns:xlink="http://www.w3.org/1999/xlink" x="0px" y="0px"
	 viewBox="0 0 496 496" style="enable-background:new 0 0 496 496;" xml:space="preserve">
<path d="M408,336h-57.472c0.896-2.512,1.472-5.184,1.472-8c0-13.232-10.768-24-24-24s-24,10.768-24,24c0,2.816,0.576,5.488,1.472,8
	H270.52c0.904-2.512,1.48-5.184,1.48-8c0-13.232-10.768-24-24-24s-24,10.768-24,24c0,2.816,0.576,5.488,1.472,8H190.52
	c0.904-2.512,1.48-5.184,1.48-8c0-13.232-10.768-24-24-24s-24,10.768-24,24c0,2.816,0.576,5.488,1.472,8H88
	c-13.232,0-24,10.768-24,24s10.768,24,24,24h10.232l16,48h24.824l12,24l-12,24H128v16h3.056h233.888H368v-16h-11.056l-12-24l12-24
	h24.824l16-48H408c13.232,0,24-10.768,24-24S421.232,336,408,336z M320,328c0-4.408,3.592-8,8-8s8,3.592,8,8s-3.592,8-8,8
	S320,332.408,320,328z M240,328c0-4.408,3.592-8,8-8c4.408,0,8,3.592,8,8s-3.592,8-8,8S240,332.408,240,328z M160,328
	c0-4.408,3.592-8,8-8s8,3.592,8,8s-3.592,8-8,8S160,332.408,160,328z M331.056,448H304v16h27.056l8,16H156.944l8-16H288v-16H164.944
	l-8-16h182.112L331.056,448z M370.232,416H125.768l-10.664-32h265.8L370.232,416z M408,368H88c-4.408,0-8-3.592-8-8s3.592-8,8-8h320
	c4.408,0,8,3.592,8,8S412.408,368,408,368z"/>
<path d="M120,272h32v-16h-32v-8c0-4.408,3.592-8,8-8h240c4.408,0,8,3.592,8,8v8H168v16h208v32h16v-56c0-13.232-10.768-24-24-24h-8
	v-56c0-13.232-10.768-24-24-24H160c-13.232,0-24,10.768-24,24v56h-8c-13.232,0-24,10.768-24,24v56h16V272z M160,160h176
	c4.408,0,8,3.592,8,8v8H152v-8C152,163.592,155.592,160,160,160z M152,192h192v32H152V192z"/>
<path d="M212.368,100.232C209.512,94.88,208,88.816,208,82.696c0-5.76,1.36-11.528,3.936-16.68L232,25.888
	c3.048-6.096,9.176-9.888,16-9.888s12.952,3.792,16,9.888l20.064,40.12C286.64,71.168,288,76.936,288,82.696
	c0,6.12-1.512,12.184-4.368,17.536l14.112,7.536C301.832,100.104,304,91.44,304,82.696c0-8.232-1.944-16.472-5.624-23.84
	l-20.064-40.12C272.536,7.176,260.92,0,248,0s-24.536,7.176-30.312,18.736l-20.064,40.128c-3.68,7.36-5.624,15.6-5.624,23.832
	c0,8.744,2.168,17.408,6.256,25.072L212.368,100.232z"/>
<rect x="240" y="32" width="16" height="16"/>
<rect x="256" y="64" width="16" height="16"/>
<rect x="224" y="64" width="16" height="16"/>
<g>
	<path style="fill:#F0BC5E;" d="M128,352c-17.648,0-32-14.352-32-32s14.352-32,32-32s32,14.352,32,32S145.648,352,128,352z"/>
	<path style="fill:#F0BC5E;" d="M208,352c-17.648,0-32-14.352-32-32s14.352-32,32-32s32,14.352,32,32S225.648,352,208,352z"/>
	<path style="fill:#F0BC5E;" d="M319.032,107.72L296,84.688l-23.032,23.032c-0.368,0.368-0.624,0.8-0.968,1.176
		c-0.344-0.376-0.608-0.816-0.968-1.176L248,84.688l-23.032,23.032c-0.368,0.368-0.624,0.8-0.968,1.176
		c-0.344-0.376-0.608-0.816-0.968-1.176L200,84.688l-23.032,23.032c-5.784,5.784-8.968,13.472-8.968,21.656
		c0,16.88,13.744,30.624,30.624,30.624h2.752c8.992,0,17.016-3.976,22.624-10.168c5.608,6.192,13.632,10.168,22.624,10.168h2.752
		c8.992,0,17.016-3.976,22.624-10.168c5.608,6.192,13.632,10.168,22.624,10.168h2.752c16.88,0,30.624-13.744,30.624-30.624
		C328,121.192,324.816,113.504,319.032,107.72z"/>
	<path style="fill:#F0BC5E;" d="M288,352c-17.648,0-32-14.352-32-32s14.352-32,32-32s32,14.352,32,32S305.648,352,288,352z"/>
	<path style="fill:#F0BC5E;" d="M368,352c-17.648,0-32-14.352-32-32s14.352-32,32-32s32,14.352,32,32S385.648,352,368,352z"/>
</g>
<g>
</g>
<g>
</g>
<g>
</g>
<g>
</g>
<g>
</g>
<g>
</g>
<g>
</g>
<g>
</g>
<g>
</g>
<g>
</g>
<g>
</g>
<g>
</g>
<g>
</g>
<g>
</g>
<g>
</g>
</svg>
