<?xml version="1.0" encoding="iso-8859-1"?>
<!-- Generator: Adobe Illustrator 19.0.0, SVG Export Plug-In . SVG Version: 6.00 Build 0)  -->
<svg version="1.1" id="Capa_1" xmlns="http://www.w3.org/2000/svg" xmlns:xlink="http://www.w3.org/1999/xlink" x="0px" y="0px"
	 viewBox="0 0 496 496" style="enable-background:new 0 0 496 496;" xml:space="preserve">
<g>
	<path style="fill:#F0BC5E;" d="M176,64c-61.856,0-112,50.144-112,112s50.144,112,112,112s112-50.144,112-112S237.856,64,176,64z
		 M176,248c-39.768,0-72-32.232-72-72s32.232-72,72-72s72,32.232,72,72S215.768,248,176,248z"/>
	<path style="fill:#F0BC5E;" d="M176,376c-13.256,0-24,10.744-24,24s10.744,24,24,24h40v-8C216,393.912,198.088,376,176,376z"/>
	<path style="fill:#F0BC5E;" d="M240,376c-13.256,0-24,10.744-24,24s10.744,24,24,24h40v-8C280,393.912,262.088,376,240,376z"/>
	<path style="fill:#F0BC5E;" d="M304,376c-13.256,0-24,10.744-24,24s10.744,24,24,24h40v-8C344,393.912,326.088,376,304,376z"/>
	<path style="fill:#F0BC5E;" d="M368,376c-13.256,0-24,10.744-24,24s10.744,24,24,24h40v-8C408,393.912,390.088,376,368,376z"/>
	<path style="fill:#F0BC5E;" d="M432,376c-13.256,0-24,10.744-24,24s10.744,24,24,24h40v-8C472,393.912,454.088,376,432,376z"/>
</g>
<path d="M480,416H144c-8.824,0-16,7.176-16,16v24c0,22.056,17.944,40,40,40h288c22.056,0,40-17.944,40-40v-24
	C496,423.176,488.824,416,480,416z M480,456c0,13.232-10.768,24-24,24H168c-13.232,0-24-10.768-24-24v-24h336V456z"/>
<path d="M440,288H311.656C337.72,256.52,352,217.32,352,176C352,78.952,273.048,0,176,0S0,78.952,0,176
	c0,79.256,52.352,147.856,128,169.216V368c0,8.824,7.176,16,16,16h336c8.824,0,16-7.176,16-16v-24C496,313.12,470.88,288,440,288z
	 M130.056,329.168C62.536,309.024,16,247.248,16,176C16,87.776,87.776,16,176,16s160,71.776,160,160
	c0,42.128-16.232,81.888-45.712,111.976l0.024,0.024H184C158.264,288,136.584,305.472,130.056,329.168z M480,368H144v-24
	c0-22.056,17.944-40,40-40h256c22.056,0,40,17.944,40,40V368z"/>
<path d="M145.88,51.56l-3.76-15.552c-5.752,1.392-11.456,3.152-16.952,5.224l5.656,14.968C135.704,54.352,140.768,52.8,145.88,51.56
	z"/>
<path d="M111.032,47.456C62.288,72.136,32,121.392,32,176h16c0-48.544,26.92-92.328,70.264-114.272L111.032,47.456z"/>
<path d="M256,176c0-44.112-35.888-80-80-80s-80,35.888-80,80s35.888,80,80,80S256,220.112,256,176z M112,176
	c0-35.288,28.712-64,64-64s64,28.712,64,64s-28.712,64-64,64S112,211.288,112,176z"/>
<rect x="192" y="320" width="16" height="16"/>
<rect x="280" y="336" width="16" height="16"/>
<rect x="360" y="328" width="16" height="16"/>
<rect x="424" y="336" width="16" height="16"/>
<g>
</g>
<g>
</g>
<g>
</g>
<g>
</g>
<g>
</g>
<g>
</g>
<g>
</g>
<g>
</g>
<g>
</g>
<g>
</g>
<g>
</g>
<g>
</g>
<g>
</g>
<g>
</g>
<g>
</g>
</svg>
