<?xml version="1.0" encoding="iso-8859-1"?>
<!-- Generator: Adobe Illustrator 19.0.0, SVG Export Plug-In . SVG Version: 6.00 Build 0)  -->
<svg version="1.1" id="Capa_1" xmlns="http://www.w3.org/2000/svg" xmlns:xlink="http://www.w3.org/1999/xlink" x="0px" y="0px"
	 viewBox="0 0 496 496" style="enable-background:new 0 0 496 496;" xml:space="preserve">
<rect x="312" y="353.112" width="32" height="16"/>
<path d="M281.088,14.888L0,196.76v220.352h264v-16H16v-32h264v-16H16v-32h20.944l8-16h7.232c12.936,19.28,34.92,32,59.824,32
	c11.832,0,22.976-2.92,32.84-8h27.848l8,8H208v-32h12.688l16,16h24.256l8-16H272v-16h-12.944l-8,16h-7.744l-16-16H192v32h-4.688
	l-8-8h-13.8c9.768-10.88,16.312-24.704,18.016-40H272v-16H16v-16h226.28v-16H16v-16h432v16H256.976v16H448v16h-56v16h56v24h-12.944
	l-8,16h-5.288l-8-24H392v16h10.232l8,24h26.712l8-16H448v40h-56v16h56v32h-56v16h72V197.8L281.088,14.888z M356.688,113.112H352v16
	h16v-4.688l68.688,68.688h-401.6L232,65.696v15.416h16v-16h-15.096l46.016-29.776L356.688,113.112z M156.784,298.584l-10.848-10.848
	l-11.312,11.312l10.848,10.848c-7.32,5.488-16.008,9.216-25.472,10.576v-15.36h-16v15.36c-9.464-1.36-18.152-5.088-25.472-10.576
	l10.848-10.848l-11.312-11.312l-10.848,10.848c-5.488-7.32-9.216-16.008-10.576-25.472h110.72
	C166,282.576,162.272,291.264,156.784,298.584z M40.472,273.112c0.616,5.56,1.92,10.896,3.728,16h-9.144l-8,16H16v-32H40.472z"/>
<rect x="280" y="65.112" width="16" height="16"/>
<rect x="160" y="113.112" width="16" height="16"/>
<rect x="208" y="113.112" width="16" height="16"/>
<rect x="256" y="113.112" width="16" height="16"/>
<rect x="304" y="113.112" width="16" height="16"/>
<rect x="88" y="161.112" width="16" height="16"/>
<rect x="136" y="161.112" width="16" height="16"/>
<rect x="184" y="161.112" width="16" height="16"/>
<rect x="232" y="161.112" width="16" height="16"/>
<rect x="280" y="161.112" width="16" height="16"/>
<rect x="328" y="161.112" width="16" height="16"/>
<rect x="376" y="161.112" width="16" height="16"/>
<path style="fill:#F0BC5E;" d="M472,433.112h-72c-4.416,0-8-3.584-8-8v-184H272v120c0,13.232,10.768,24,24,24s24-10.768,24-24v-80
	c0-4.416,3.584-8,8-8s8,3.584,8,8v112c0,4.416-3.584,8-8,8h-64c-13.232,0-24,10.768-24,24s10.768,24,24,24h48c4.416,0,8,3.584,8,8
	c0,13.232,10.768,24,24,24h128c13.232,0,24-10.768,24-24S485.232,433.112,472,433.112z"/>
<g>
</g>
<g>
</g>
<g>
</g>
<g>
</g>
<g>
</g>
<g>
</g>
<g>
</g>
<g>
</g>
<g>
</g>
<g>
</g>
<g>
</g>
<g>
</g>
<g>
</g>
<g>
</g>
<g>
</g>
</svg>
