<?xml version="1.0" encoding="iso-8859-1"?>
<!-- Generator: Adobe Illustrator 19.0.0, SVG Export Plug-In . SVG Version: 6.00 Build 0)  -->
<svg version="1.1" id="Capa_1" xmlns="http://www.w3.org/2000/svg" xmlns:xlink="http://www.w3.org/1999/xlink" x="0px" y="0px"
	 viewBox="0 0 496 496" style="enable-background:new 0 0 496 496;" xml:space="preserve">
<path style="fill:#F0BC5E;" d="M475.096,277.904C487.272,273.368,496,261.728,496,248s-8.736-25.368-20.904-29.904
	c10.576-7.528,16-21.024,12.448-34.288c-3.544-13.248-14.968-22.24-27.872-23.48c2.888-3.496,5.088-7.536,6.296-12.048
	c2.216-8.256,1.08-16.88-3.192-24.28s-11.168-12.696-19.432-14.904c-4.504-1.216-9.104-1.336-13.56-0.576
	c1.88-4.12,2.952-8.584,2.952-13.248c0-8.552-3.328-16.584-9.376-22.624c-6.04-6.048-14.072-9.376-22.624-9.376
	c-4.664,0-9.128,1.072-13.248,2.952c0.752-4.464,0.632-9.064-0.576-13.56C384.696,44.4,379.4,37.504,372,33.224
	c-7.4-4.264-16.024-5.416-24.28-3.192c-4.52,1.208-8.568,3.416-12.064,6.312C334.416,23.432,325.44,12,312.192,8.456
	c-13.248-3.56-26.76,1.864-34.288,12.448C273.368,8.728,261.728,0,248,0s-25.368,8.728-29.896,20.896
	c-7.528-10.584-21.024-16.008-34.288-12.44C170.568,12,161.592,23.432,160.352,36.344c-3.496-2.896-7.544-5.104-12.064-6.312
	c-8.256-2.216-16.88-1.072-24.28,3.192c-7.4,4.272-12.696,11.168-14.904,19.432c-1.208,4.504-1.328,9.104-0.576,13.56
	c-4.12-1.88-8.584-2.952-13.248-2.952c-8.552,0-16.584,3.328-22.624,9.376c-6.048,6.04-9.376,14.072-9.376,22.624
	c0,4.664,1.072,9.136,2.96,13.248c-4.464-0.752-9.056-0.632-13.568,0.576C44.4,111.304,37.504,116.6,33.224,124
	c-4.28,7.4-5.416,16.024-3.192,24.28c1.208,4.52,3.416,8.568,6.312,12.064C23.432,161.592,12,170.56,8.456,183.816
	c-3.552,13.264,1.872,26.76,12.448,34.288C8.736,222.632,0,234.272,0,248s8.728,25.368,20.904,29.904
	c-10.576,7.528-16,21.024-12.448,34.288C12,325.44,23.432,334.416,36.344,335.656c-2.896,3.496-5.096,7.544-6.312,12.064
	c-2.216,8.256-1.08,16.88,3.192,24.28s11.168,12.696,19.432,14.904c2.76,0.744,5.552,1.112,8.336,1.112
	c1.752,0,3.488-0.2,5.208-0.488c-1.872,4.104-2.928,8.56-2.928,13.208c0,8.552,3.328,16.584,9.376,22.624
	c6.04,6.048,14.072,9.376,22.624,9.376c4.664,0,9.128-1.072,13.248-2.952c-0.752,4.464-0.632,9.064,0.576,13.56
	c2.208,8.256,7.504,15.16,14.904,19.432c4.928,2.84,10.4,4.304,15.944,4.304c2.784,0,5.576-0.368,8.336-1.112
	c4.52-1.208,8.568-3.416,12.064-6.312c1.248,12.912,10.224,24.344,23.464,27.888c2.768,0.744,5.536,1.096,8.272,1.096
	c10.368,0,20.072-5.12,26.04-13.464C222.672,487.304,234.296,496,248,496c13.704,0,25.328-8.696,29.88-20.824
	c5.96,8.352,15.664,13.464,26.04,13.464c2.736,0,5.504-0.352,8.272-1.096c13.248-3.544,22.224-14.976,23.464-27.888
	c3.496,2.896,7.544,5.104,12.064,6.312c2.76,0.744,5.552,1.112,8.336,1.112c5.544,0,11.016-1.464,15.944-4.304
	c7.4-4.272,12.696-11.168,14.904-19.432c1.208-4.504,1.328-9.104,0.576-13.56c4.12,1.88,8.584,2.952,13.248,2.952
	c8.552,0,16.584-3.328,22.624-9.376c6.048-6.04,9.376-14.072,9.376-22.624c0-4.648-1.064-9.104-2.928-13.208
	c1.72,0.288,3.456,0.488,5.208,0.488c2.784,0,5.576-0.368,8.336-1.112c8.256-2.208,15.16-7.504,19.432-14.904
	s5.416-16.024,3.192-24.28c-1.208-4.52-3.416-8.568-6.312-12.064c12.912-1.248,24.344-10.224,27.888-23.464
	C491.096,298.928,485.672,285.424,475.096,277.904z M248,440c-106.04,0-192-85.96-192-192S141.96,56,248,56s192,85.96,192,192
	S354.04,440,248,440z"/>
<path d="M248,48C137.72,48,48,137.72,48,248s89.72,200,200,200s200-89.72,200-200S358.28,48,248,48z M248,432
	c-101.464,0-184-82.536-184-184S146.536,64,248,64s184,82.536,184,184S349.464,432,248,432z"/>
<path d="M248,80c-92.632,0-168,75.368-168,168s75.368,168,168,168s168-75.368,168-168S340.632,80,248,80z M392,228.688L355.312,192
	l22.56-22.56c9.8,16.136,16.656,34.184,19.88,53.496L392,228.688z M368.704,155.984L296,228.688L259.312,192l71.368-71.368
	C345.304,130.16,358.128,142.152,368.704,155.984z M222.936,397.752c-19.312-3.224-37.36-10.08-53.496-19.88l78.56-78.56
	L284.688,336L222.936,397.752z M200,324.688L163.312,288l58.344-58.344l-11.312-11.312L200,228.688L163.312,192L248,107.312
	L284.688,144l-62.192,62.192l11.312,11.312L248,203.312L284.688,240L200,324.688z M152,203.312L188.688,240l-76.296,76.296
	c-8.864-17.52-14.392-36.952-15.848-57.528L152,203.312z M296,132.688l-36.08-36.08c20.152,1.576,39.176,7.096,56.376,15.792
	L296,132.688z M200,132.688l-20.296-20.296c17.2-8.696,36.224-14.216,56.376-15.792L200,132.688z M165.32,120.632L188.688,144
	l-92.08,92.08C100.384,187.736,126.8,145.72,165.32,120.632z M120.632,330.68L152,299.312L188.688,336l-32.704,32.704
	C142.152,358.128,130.16,345.304,120.632,330.68z M243.536,399.776l4.464-4.464l4.464,4.464c-1.496,0.04-2.96,0.224-4.464,0.224
	S245.032,399.816,243.536,399.776z M273.064,397.752l-3.408-3.408L259.312,384l58.344-58.344l-11.312-11.312L296,324.688
	L259.312,288L344,203.312L380.688,240l-62.408,62.408l11.312,11.312L344,299.312l31.368,31.368
	C352.584,365.656,315.832,390.608,273.064,397.752z M383.608,316.296L355.312,288l44.464-44.464c0.04,1.496,0.224,2.96,0.224,4.464
	C400,272.576,394.008,295.728,383.608,316.296z"/>
<rect x="308.708" y="256.003" transform="matrix(-0.7071 0.7071 -0.7071 -0.7071 732.9861 224.392)" width="22.624" height="16"/>
<rect x="308.682" y="160.001" transform="matrix(-0.7071 0.7071 -0.7071 -0.7071 665.0591 60.5252)" width="22.624" height="16"/>
<rect x="220.705" y="152.001" transform="matrix(-0.7071 0.7071 -0.7071 -0.7071 509.2151 109.0778)" width="22.624" height="16"/>
<rect x="124.705" y="247.996" transform="matrix(-0.7071 0.7071 -0.7071 -0.7071 413.2117 340.8341)" width="22.624" height="16"/>
<g>
</g>
<g>
</g>
<g>
</g>
<g>
</g>
<g>
</g>
<g>
</g>
<g>
</g>
<g>
</g>
<g>
</g>
<g>
</g>
<g>
</g>
<g>
</g>
<g>
</g>
<g>
</g>
<g>
</g>
</svg>
