<?xml version="1.0" encoding="iso-8859-1"?>
<!-- Generator: Adobe Illustrator 19.0.0, SVG Export Plug-In . SVG Version: 6.00 Build 0)  -->
<svg version="1.1" id="Capa_1" xmlns="http://www.w3.org/2000/svg" xmlns:xlink="http://www.w3.org/1999/xlink" x="0px" y="0px"
	 viewBox="0 0 499.68 499.68" style="enable-background:new 0 0 499.68 499.68;" xml:space="preserve">
<path d="M477.84,299.68c0-13.232-10.768-24-24-24h-17.472c0.896-2.512,1.472-5.184,1.472-8v-16c0-6.168-2.408-11.744-6.24-16
	c3.84-4.256,6.24-9.832,6.24-16v-16c0-13.232-10.768-24-24-24h-56.208c5.08-6.704,8.208-14.96,8.208-24
	c0-19.776-14.464-36.136-33.344-39.328c0.792-2.8,1.344-5.688,1.344-8.672c0-17.648-14.352-32-32-32h-8.496
	c-2.376-24.608-15.52-46.96-36.352-60.84L234.736,0l-11.88,23.76c-3.976,7.952-11.576,13.568-20.36,15.032
	C183.4,41.976,169.128,57.04,166.408,75.68h-8.568c-17.648,0-32,14.352-32,32c0,2.984,0.552,5.872,1.344,8.672
	c-18.88,3.192-33.344,19.552-33.344,39.328c0,9.04,3.128,17.296,8.208,24H45.84c-13.232,0-24,10.768-24,24v16
	c0,6.168,2.408,11.744,6.24,16c-3.832,4.256-6.24,9.832-6.24,16v16c0,13.232,10.768,24,24,24h17.472
	c-0.896,2.512-1.472,5.184-1.472,8v16c0,6.168,2.408,11.744,6.24,16c-3.832,4.256-6.24,9.832-6.24,16v16
	c0,6.168,2.408,11.744,6.24,16c-3.832,4.256-6.24,9.832-6.24,16v16c0,13.232,10.768,24,24,24h176v-16h-176c-4.416,0-8-3.584-8-8v-16
	c0-4.416,3.584-8,8-8h112v-16h-112c-4.416,0-8-3.584-8-8v-16c0-4.416,3.584-8,8-8h56h64v-16h-64h-56c-4.416,0-8-3.584-8-8v-16
	c0-4.416,3.584-8,8-8h56v-16h-56h-40c-4.416,0-8-3.584-8-8v-16c0-4.416,3.584-8,8-8h88v-16h-88c-4.416,0-8-3.584-8-8v-16
	c0-4.416,3.584-8,8-8h368c4.416,0,8,3.584,8,8v16c0,4.416-3.584,8-8,8h-24v16h24c4.416,0,8,3.584,8,8v16c0,4.416-3.584,8-8,8h-24v16
	h24h40c4.416,0,8,3.584,8,8v16c0,4.416-3.584,8-8,8h-64v16h64c4.416,0,8,3.584,8,8v16c0,4.416-3.584,8-8,8h-64v16h64
	c4.416,0,8,3.584,8,8v16c0,4.416-3.584,8-8,8h-88v16h88c13.232,0,24-10.768,24-24v-16c0-6.168-2.408-11.744-6.24-16
	c3.84-4.256,6.24-9.832,6.24-16v-16c0-6.168-2.408-11.744-6.24-16c3.84-4.256,6.24-9.832,6.24-16V299.68z M349.84,155.68
	c0,13.232-10.768,24-24,24s-24-10.768-24-24s10.768-24,24-24S349.84,142.448,349.84,155.68z M173.84,155.68
	c0-13.232,10.768-24,24-24s24,10.768,24,24s-10.768,24-24,24S173.84,168.912,173.84,155.68z M166.048,179.68h-0.408
	c0.064-0.088,0.144-0.16,0.208-0.248C165.904,179.52,165.976,179.592,166.048,179.68z M229.84,179.432
	c0.064,0.088,0.136,0.16,0.208,0.248h-0.408C229.704,179.592,229.776,179.52,229.84,179.432z M237.84,155.68
	c0-13.232,10.768-24,24-24s24,10.768,24,24s-10.768,24-24,24S237.84,168.912,237.84,155.68z M293.84,179.432
	c0.064,0.088,0.136,0.16,0.208,0.248h-0.408C293.704,179.592,293.776,179.52,293.84,179.432z M157.84,91.68h88v-16h-63.176
	c2.52-10.744,11.152-19.216,22.464-21.112c13.808-2.296,25.784-11.144,32.04-23.656l3.776-7.552l7.176,4.792
	c16.368,10.912,26.92,28.28,29.224,47.528H261.84v16h40c8.824,0,16,7.176,16,16c0,3.648-1.296,7.08-3.552,9.904
	c-8.272,2.52-15.392,7.56-20.448,14.344c-7.296-9.8-18.872-16.248-32-16.248s-24.704,6.448-32,16.248
	c-7.296-9.8-18.872-16.248-32-16.248s-24.704,6.448-32,16.248c-5.048-6.784-12.168-11.824-20.448-14.344
	c-2.256-2.824-3.552-6.256-3.552-9.904C141.84,98.856,149.016,91.68,157.84,91.68z M109.84,155.68c0-13.232,10.768-24,24-24
	s24,10.768,24,24s-10.768,24-24,24S109.84,168.912,109.84,155.68z"/>
<rect x="245.84" y="275.68" width="48" height="16"/>
<rect x="237.84" y="323.68" width="56" height="16"/>
<rect x="213.84" y="371.68" width="80" height="16"/>
<rect x="245.84" y="227.68" width="128" height="16"/>
<rect x="173.84" y="275.68" width="24" height="16"/>
<g>
	<path style="fill:#F0BC5E;" d="M437.84,499.68h-96c-13.232,0-24-10.768-24-24c0-4.416-3.584-8-8-8h-56c-13.232,0-24-10.768-24-24
		s10.768-24,24-24h24c4.416,0,8-3.584,8-8v-120c0-13.232,10.768-24,24-24h64c13.232,0,24,10.768,24,24v88c0,13.232-10.768,24-24,24
		s-24-10.768-24-24v-48c0-4.416-3.584-8-8-8s-8,3.584-8,8v80c0,4.416,3.584,8,8,8h24c13.232,0,24,10.768,24,24c0,4.416,3.584,8,8,8
		h40c13.232,0,24,10.768,24,24S451.072,499.68,437.84,499.68z"/>
	<path style="fill:#F0BC5E;" d="M133.84,195.68v88c0,13.232,10.768,24,24,24s24-10.768,24-24v-48c0-4.416,3.584-8,8-8s8,3.584,8,8
		v96c0,13.232,10.768,24,24,24s24-10.768,24-24v-136H133.84z"/>
</g>
<g>
</g>
<g>
</g>
<g>
</g>
<g>
</g>
<g>
</g>
<g>
</g>
<g>
</g>
<g>
</g>
<g>
</g>
<g>
</g>
<g>
</g>
<g>
</g>
<g>
</g>
<g>
</g>
<g>
</g>
</svg>
