<?xml version="1.0" encoding="iso-8859-1"?>
<!-- Generator: Adobe Illustrator 19.0.0, SVG Export Plug-In . SVG Version: 6.00 Build 0)  -->
<svg version="1.1" id="Capa_1" xmlns="http://www.w3.org/2000/svg" xmlns:xlink="http://www.w3.org/1999/xlink" x="0px" y="0px"
	 viewBox="0 0 497.52 497.52" style="enable-background:new 0 0 497.52 497.52;" xml:space="preserve">
<g>
	<path style="fill:#F0BC5E;" d="M75.888,409.52L90.52,465.6c3.672,14.088,16.4,23.92,30.96,23.92h254.56
		c14.56,0,27.288-9.832,30.96-23.92l14.632-56.08H75.888z"/>
	<path style="fill:#F0BC5E;" d="M304.76,169.52c-13.232,0-24-10.768-24-24s10.768-24,24-24s24,10.768,24,24
		S317.992,169.52,304.76,169.52z"/>
	<path style="fill:#F0BC5E;" d="M280.76,257.52c-13.232,0-24-10.768-24-24s10.768-24,24-24s24,10.768,24,24
		S293.992,257.52,280.76,257.52z"/>
	<path style="fill:#F0BC5E;" d="M152.76,241.52c-13.232,0-24-10.768-24-24s10.768-24,24-24s24,10.768,24,24
		S165.992,241.52,152.76,241.52z"/>
</g>
<path d="M480.76,241.52c0-37.136-28.256-67.8-64.4-71.6c-2.616-24.824-17.904-45.928-39.248-56.712l-0.768-2.216
	c-15.816-47.464-53.592-85.24-101.056-101.056L245.496,0l-17.088,25.624C218.112,41.08,201.6,51,183.128,52.84
	c-31.936,3.192-58.264,25.2-67.088,56.056l-2.352,8.232c-17.784,11.544-30.192,30.672-32.52,52.8
	c-36.144,3.808-64.408,34.456-64.408,71.592c0,22.328,10.472,43.312,27.84,56.848l-4.744,4.744l42.912,164.512
	c4.6,17.6,20.512,29.896,38.712,29.896h254.544c18.192,0,34.112-12.296,38.712-29.896l42.912-164.512l-4.744-4.744
	C470.288,284.832,480.76,263.848,480.76,241.52z M98.264,463.584L57.656,307.936l31.104-31.104l32.424,32.424l22.472,172.264
	h-22.168C110.568,481.52,101.016,474.144,98.264,463.584z M296.616,308.976l32.144-32.144l31.56,31.56L337.736,481.52h-48.624
	L296.616,308.976z M273.104,481.52h-48.68l-7.512-172.832l31.848-31.856l31.856,31.856L273.104,481.52z M200.904,308.976
	l7.504,172.544h-48.624L137.2,308.392l31.56-31.56L200.904,308.976z M399.256,463.584c-2.752,10.56-12.312,17.936-23.224,17.936
	h-22.168l22.472-172.264l32.424-32.424l31.104,31.104L399.256,463.584z M408.76,254.208l-40,40l-40-40l-40,40l-40-40l-40,40l-40-40
	l-40,40l-40-40l-32.68,32.68c-14.472-10.464-23.32-27.328-23.32-45.368c0-28.352,21.208-51.8,48.576-55.448
	c1.6,13.272,6.824,25.984,15.224,36.456l12.488-10.016c-8.04-10.016-12.288-22.12-12.288-34.992c0-30.872,25.128-56,56-56v-16
	c-6.76,0-13.272,1-19.48,2.752c8.296-21.808,27.864-37.152,51.44-39.512c23.256-2.328,44.04-14.816,57-34.264l10.304-15.456
	l18.2,6.064c39.52,13.176,71.544,43.288,87.408,81.6c-4.176-0.76-8.472-1.184-12.872-1.184v16c30.872,0,56,25.128,56,56v8h8
	c30.872,0,56,25.128,56,56c0,18.04-8.848,34.904-23.32,45.368L408.76,254.208z"/>
<path d="M288.76,57.52c-4.248,0-8.384,1.152-12,3.264c-3.616-2.112-7.752-3.264-12-3.264c-13.232,0-24,10.768-24,24h16
	c0-4.416,3.584-8,8-8c3.088,0,5.072,1.744,5.976,2.784l6.024,6.888l6.024-6.888c0.904-1.04,2.888-2.784,5.976-2.784
	c4.416,0,8,3.584,8,8h16C312.76,68.288,301.992,57.52,288.76,57.52z"/>
<path d="M184.76,137.52c-4.248,0-8.384,1.152-12,3.264c-3.616-2.112-7.752-3.264-12-3.264c-13.232,0-24,10.768-24,24h16
	c0-4.416,3.584-8,8-8c3.088,0,5.072,1.744,5.976,2.784l6.024,6.888l6.024-6.888c0.904-1.04,2.888-2.784,5.976-2.784
	c4.416,0,8,3.584,8,8h16C208.76,148.288,197.992,137.52,184.76,137.52z"/>
<path d="M400.76,209.52c-4.248,0-8.384,1.152-12,3.264c-3.616-2.112-7.752-3.264-12-3.264c-13.232,0-24,10.768-24,24h16
	c0-4.416,3.584-8,8-8c3.088,0,5.072,1.744,5.976,2.784l6.024,6.888l6.024-6.888c0.904-1.04,2.888-2.784,5.976-2.784
	c4.416,0,8,3.584,8,8h16C424.76,220.288,413.992,209.52,400.76,209.52z"/>
<rect x="432.76" y="241.52" width="16" height="16"/>
<rect x="352.76" y="153.52" width="16" height="16"/>
<rect x="200.76" y="89.52" width="16" height="16"/>
<rect x="192.76" y="185.52" width="16" height="16"/>
<rect x="56.76" y="233.52" width="16" height="16"/>
<g>
</g>
<g>
</g>
<g>
</g>
<g>
</g>
<g>
</g>
<g>
</g>
<g>
</g>
<g>
</g>
<g>
</g>
<g>
</g>
<g>
</g>
<g>
</g>
<g>
</g>
<g>
</g>
<g>
</g>
</svg>
