<?xml version="1.0" encoding="iso-8859-1"?>
<!-- Generator: Adobe Illustrator 19.0.0, SVG Export Plug-In . SVG Version: 6.00 Build 0)  -->
<svg version="1.1" id="Capa_1" xmlns="http://www.w3.org/2000/svg" xmlns:xlink="http://www.w3.org/1999/xlink" x="0px" y="0px"
	 viewBox="0 0 502.112 502.112" style="enable-background:new 0 0 502.112 502.112;" xml:space="preserve">
<g>
	<path style="fill:#F0BC5E;" d="M297.584,334.112c0.896,2.512,1.472,5.176,1.472,8l-10.824,41.144l2.824,6.856h160l14.736-56
		H297.584z"/>
	<polygon style="fill:#F0BC5E;" points="36.32,438.112 51.056,494.112 259.056,494.112 273.792,438.112 	"/>
	<path style="fill:#F0BC5E;" d="M282.72,315.816c-0.552-1.84-14.072-45.44-59.896-69.864h-0.008c-2.12,2.696-4.904,4.88-8.256,6.184
		c-11.672,4.528-31.504,9.976-59.504,9.976s-47.832-5.448-59.504-9.984c-3.352-1.304-6.136-3.488-8.256-6.184h-0.008
		c-45.832,24.432-59.344,68.024-59.896,69.864l0.464,3.52c2.288-0.72,4.672-1.216,7.2-1.216c13.256,0,24,10.744,24,24
		c0-13.256,10.744-24,24-24s24,10.744,24,24c0-13.256,10.744-24,24-24s24,10.744,24,24c0-13.256,10.744-24,24-24s24,10.744,24,24
		c0-13.256,10.744-24,24-24s24,10.744,24,24c0-13.256,10.744-24,24-24c2.704,0,5.256,0.544,7.688,1.376L282.72,315.816z"/>
</g>
<path d="M474.84,207.184c-2.224-75.16-40.376-144.408-103.192-186.288L340.304,0l-4.272,47.024
	c-2.64,29.008-23.544,52.6-52.032,58.704c-37.632,8.064-64.944,41.856-64.944,80.336v21.176c-0.776,0.2-1.568,0.344-2.328,0.608
	c-1.88-0.68-3.848-1.128-5.888-1.392c-1.064-13.672-7.944-26.464-18.976-34.752c-8.016-6.008-12.808-15.576-12.808-25.592V119.68
	l-42.32,26.448c-21.4,13.376-34.848,35.544-37.192,60.304c-13.752,1.608-24.488,13.192-24.488,27.36c0,11.512,6.904,21.64,17.6,25.8
	c12.344,4.792,33.2,10.52,62.4,10.52s50.056-5.728,62.4-10.52c10.696-4.16,17.6-14.288,17.6-25.8c0-3.728-0.76-7.272-2.104-10.52
	c5.904,2.352,10.104,8.104,10.104,14.84l3.88,24.68c8.112,7.208,14.584,14.776,19.632,21.904l-7.48-46.968
	c0.216-8.64,7.28-15.616,15.968-15.616c8.824,0,16,7.176,16,16l8.824,84.056c-5.872-7.288-14.752-12.056-24.824-12.056
	c-9.544,0-18.136,4.2-24,10.856c-5.864-6.656-14.456-10.856-24-10.856s-18.136,4.2-24,10.856c-5.864-6.656-14.456-10.856-24-10.856
	s-18.136,4.2-24,10.856c-5.864-6.656-14.456-10.856-24-10.856s-18.136,4.2-24,10.856c-5.864-6.656-14.456-10.856-24-10.856
	s-18.136,4.2-24,10.856c-5.864-6.656-14.456-10.856-24-10.856c-17.648,0-32,14.352-32,32l41.832,160h220.328l27.368-104h164.632
	l41.568-157.968l0.272-2.032C499.056,223.168,488.72,210.68,474.84,207.184z M458.848,207.296
	c-6.184,1.648-11.672,5.008-15.792,9.672c-4.2-4.76-9.824-8.192-16.168-9.8c-0.824-49.28-10.424-97.384-28.592-143.24
	C435.32,102.2,457.152,153.056,458.848,207.296z M211.656,244.672c-11.072,4.304-29.88,9.44-56.6,9.44s-45.528-5.136-56.6-9.44
	c-4.496-1.744-7.4-6.016-7.4-10.88c0-6.44,5.24-11.68,11.68-11.68h28.32v-16H115.56c2.352-19.072,13.056-36.04,29.656-46.416
	l17.896-11.184c0.72,14.144,7.76,27.464,19.136,36c6.928,5.2,11.232,13.096,12.328,21.6h-15.52v16h28.32
	c6.44,0,11.68,5.24,11.68,11.68C219.056,238.656,216.152,242.928,211.656,244.672z M251.056,216.968
	c-4.16-4.72-9.728-8.112-16-9.744v-21.16c0-30.992,21.992-58.2,52.304-64.688c32.48-6.968,56.984-32.264,63.312-64.264
	c6.736,29.624-8.128,61.04-36.296,74.04c-28.744,13.272-47.32,42.296-47.32,73.96v2.12
	C260.784,208.856,255.216,212.248,251.056,216.968z M283.056,207.224v-2.12c0-25.44,14.92-48.768,38.024-59.432
	c38.144-17.6,56.768-62.312,42.408-101.784l-4.424-12.168l3.712,2.472c2.88,1.92,5.656,3.96,8.424,6l9.712,23.136
	c19.128,45.928,29.128,94.328,29.984,143.944c-6.2,1.648-11.712,5.008-15.832,9.688c-5.872-6.648-14.464-10.848-24.008-10.848
	s-18.136,4.2-24,10.856c-3.968-4.496-9.24-7.736-15.152-9.456c2.056-8.608,7.992-15.912,16.368-19.504l11.864-5.096
	c13.056-5.592,22.704-17.192,25.832-31.048l-15.608-3.512c-1.992,8.856-8.168,16.28-16.52,19.856l-11.864,5.096
	c-14.144,6.056-23.92,18.864-26.312,33.712c-6.528,1.552-12.304,5.072-16.6,9.944C294.896,212.248,289.328,208.856,283.056,207.224z
	 M323.056,222.112c8.824,0,16,7.176,16,16v144h-16.8L307.08,237.896C307.2,229.176,314.312,222.112,323.056,222.112z
	 M355.056,238.112c0-8.824,7.176-16,16-16c8.744,0,15.856,7.064,15.976,15.784l-15.176,144.216h-16.8V238.112z M227.056,326.112
	c8.688,0,15.752,6.976,15.96,15.616l-22.792,144.384h-24.288l15.072-143.168l0.008-0.832h0.04
	C211.056,333.288,218.232,326.112,227.056,326.112z M179.056,326.112c8.744,0,15.856,7.064,15.976,15.784l-15.176,144.216h-16.8
	v-144C163.056,333.288,170.232,326.112,179.056,326.112z M131.056,326.112c8.824,0,16,7.176,16,16v144h-16.8L115.08,341.896
	C115.2,333.176,122.312,326.112,131.056,326.112z M19.08,341.184c0.48-8.392,7.472-15.072,15.976-15.072c8.824,0,16,7.176,16,16
	l6.416,41.248l15.8-2.496l-6.176-39.128c0.208-8.648,7.272-15.624,15.96-15.624c8.824,0,16,7.176,16,16l15.12,144H89.888
	L75.8,396.864L60,399.36l13.696,86.752h-16.48L19.08,341.184z M252.888,486.112h-16.48l22.536-142.752l0.024-1.248h0.088
	c0-8.824,7.176-16,16-16c8.504,0,15.496,6.68,15.976,15.072L252.888,486.112z M303.504,356.648l2.672,25.464H296.8L303.504,356.648z
	 M444.888,382.112h-16.48l2.328-14.752l-15.8-2.496l-2.712,17.248h-24.288l15.072-143.168l0.008-0.832h0.04c0-8.824,7.176-16,16-16
	c8.688,0,15.752,6.976,15.96,15.616l-17.544,111.136l15.8,2.496l17.688-112l0.008-1.248h0.088c0-8.824,7.176-16,16-16
	c8.504,0,15.496,6.672,15.976,15.064L444.888,382.112z"/>
<rect x="147.056" y="278.112" width="16" height="16"/>
<rect x="195.056" y="278.112" width="16" height="16"/>
<rect x="99.056" y="278.112" width="16" height="16"/>
<rect x="371.056" y="118.112" width="16" height="16"/>
<g>
</g>
<g>
</g>
<g>
</g>
<g>
</g>
<g>
</g>
<g>
</g>
<g>
</g>
<g>
</g>
<g>
</g>
<g>
</g>
<g>
</g>
<g>
</g>
<g>
</g>
<g>
</g>
<g>
</g>
</svg>
