<?xml version="1.0" encoding="iso-8859-1"?>
<!-- Generator: Adobe Illustrator 19.0.0, SVG Export Plug-In . SVG Version: 6.00 Build 0)  -->
<svg version="1.1" id="Capa_1" xmlns="http://www.w3.org/2000/svg" xmlns:xlink="http://www.w3.org/1999/xlink" x="0px" y="0px"
	 viewBox="0 0 497.816 497.816" style="enable-background:new 0 0 497.816 497.816;" xml:space="preserve">
<path style="fill:#F0BC5E;" d="M464.908,433.816h-24c-8.84,0-16-7.16-16-16V180.84l-116-67.024l-2.432-1.408
	c1.056,7.2-1.112,14.768-6.664,20.32c-7.616,7.616-19.04,8.936-28.096,4.168c-3.032,9.776-12.032,16.92-22.808,16.92
	c-10.776,0-19.776-7.144-22.816-16.92c-9.056,4.768-20.48,3.448-28.096-4.168c-7.616-7.616-8.936-19.04-4.168-28.096
	c-9.776-3.04-16.92-12.04-16.92-22.816S184.052,62.04,193.828,59c-2.184-4.16-3.032-8.808-2.632-13.368l-1.944-1.128l-4.344-2.336
	l-56-32.352L128.724,10C71.196,67.528,29.868,139.208,8.908,217.816l40-8h264v127.048c0,11.608,7.824,22.272,19.216,24.48
	c15.32,2.984,28.784-8.728,28.784-23.528v-104c0-4.416,3.584-8,8-8s8,3.584,8,8v192c0,13.256-10.744,24-24,24H257.86
	c-11.608,0-22.272,7.824-24.48,19.216c-2.984,15.32,8.728,28.784,23.528,28.784h208c17.672,0,32-14.328,32-32
	S482.58,433.816,464.908,433.816z"/>
<rect x="288.908" y="369.816" width="88" height="16"/>
<path d="M354.62,353.816h22.288v-16h-16C360.908,344,358.468,349.56,354.62,353.816z"/>
<rect x="360.908" y="305.816" width="16" height="16"/>
<rect x="110.244" y="305.816" width="202.664" height="16"/>
<rect x="80.908" y="305.816" width="16" height="16"/>
<rect x="360.908" y="273.816" width="16" height="16"/>
<path d="M42.26,191.152l15.088,5.32c12.832-36.352,30.6-70.816,52.824-102.432l-13.096-9.2
	C74.02,117.656,55.572,153.424,42.26,191.152z"/>
<path d="M127.132,71.528L114.676,61.48c-3.032,3.768-6.008,7.568-8.912,11.424l12.776,9.632
	C121.348,78.824,124.212,75.152,127.132,71.528z"/>
<path d="M314.964,108.08c8.576-5.84,13.944-15.504,13.944-26.264c0-10.56-5.248-20.416-14.04-26.368
	c-0.576-0.384-0.808-0.976-0.768-1.128c2.216-10.592-1.008-21.464-8.616-29.064c-7.608-7.616-18.464-10.816-29.072-8.616
	c-0.112,0-0.736-0.2-1.128-0.776c-5.96-8.8-15.816-14.048-26.376-14.048c-11.176,0-21.224,5.752-26.96,14.912
	c-10.528-2.424-21.704,0.608-29.608,8.52c-2.504,2.504-4.456,5.352-5.96,8.384L132.908,2.888L127.404,0l-4.336,4.344
	C64.62,62.792,22.476,135.896,1.18,215.752L0.908,417.816h376v-16h-360v-16h256v-16h-256v-16h302.416
	c-3.8-4.328-6.112-9.984-6.336-16H16.908v-16h48v-16h-48v-16h296v-16h-296v-16h296v-16h-296v-16h296v-16H19.66
	C40.444,138.576,78.308,73.2,130.26,19.832l50.856,29.376l2.032,1.096c0.128,1.52,0.328,3.04,0.672,4.544
	c-9.16,5.744-14.912,15.792-14.912,26.968s5.752,21.216,14.912,26.96c-2.416,10.536,0.616,21.704,8.52,29.608
	c7.912,7.912,19.072,10.952,29.608,8.52c5.736,9.16,15.784,14.912,26.96,14.912c11.176,0,21.216-5.752,26.96-14.912
	c10.528,2.4,21.704-0.616,29.608-8.52c3.688-3.688,6.272-8.104,7.776-12.816l145.816,84.248h-34.16v16h56v16h-56v16h56v16h-56v16h56
	v16h-56v16h56v16h-56v16h56v16h-56v16h56v16h-56v16h72V213.2L314.964,108.08z M296.908,108.352
	c3.296,6.256,2.184,13.784-2.744,18.712c-4.936,4.936-12.456,6.056-18.72,2.752l-8.504-4.472l-2.856,9.176
	c-2.096,6.76-8.2,11.296-15.176,11.296c-6.984,0-13.08-4.536-15.176-11.288l-2.848-9.184l-8.512,4.472
	c-6.272,3.296-13.792,2.176-18.712-2.744c-4.936-4.936-6.048-12.456-2.752-18.712l4.48-8.512l-9.176-2.856
	c-6.768-2.096-11.304-8.2-11.304-15.176c0-6.984,4.536-13.08,11.288-15.176l9.184-2.848l-4.472-8.52
	c-3.296-6.256-2.184-13.776,2.744-18.712c4.936-4.928,12.464-6.032,18.712-2.744l8.512,4.48l2.848-9.184
	c2.104-6.76,8.2-11.296,15.184-11.296c5.24,0,10.144,2.624,13.112,7c3.96,5.848,11.064,8.848,17.664,7.472
	c5.304-1.104,10.704,0.488,14.48,4.272c3.784,3.776,5.376,9.184,4.272,14.472c-1.384,6.608,1.616,13.704,7.464,17.664
	c4.384,2.976,7.008,7.88,7.008,13.12c0,6.976-4.536,13.08-11.296,15.176l-9.176,2.856L296.908,108.352z"/>
<path d="M272.724,78.848l11.76-5.88l-7.16-14.312l-11.776,5.888c-0.608-0.584-1.24-1.136-1.904-1.656l4.16-12.488l-15.176-5.064
	l-4.152,12.48c-0.856,0.016-1.696,0.072-2.528,0.176l-5.88-11.76l-14.312,7.16l5.888,11.776c-0.584,0.608-1.136,1.24-1.656,1.904
	l-12.488-4.16l-5.064,15.176l12.48,4.16c0.016,0.856,0.072,1.696,0.176,2.528l-11.76,5.88l7.16,14.312l11.776-5.888
	c0.608,0.584,1.24,1.136,1.904,1.656l-4.16,12.488l15.176,5.064l4.16-12.48c0.856-0.016,1.696-0.072,2.528-0.176l5.88,11.76
	l14.312-7.16l-5.888-11.776c0.584-0.608,1.136-1.24,1.656-1.904l12.488,4.16l5.064-15.176l-12.48-4.152
	C272.892,80.528,272.828,79.68,272.724,78.848z M248.908,89.816c-4.408,0-8-3.592-8-8s3.592-8,8-8c4.408,0,8,3.592,8,8
	S253.316,89.816,248.908,89.816z"/>
<rect x="360.908" y="241.816" width="16" height="16"/>
<g>
</g>
<g>
</g>
<g>
</g>
<g>
</g>
<g>
</g>
<g>
</g>
<g>
</g>
<g>
</g>
<g>
</g>
<g>
</g>
<g>
</g>
<g>
</g>
<g>
</g>
<g>
</g>
<g>
</g>
</svg>
