<?xml version="1.0" encoding="iso-8859-1"?>
<!-- Generator: Adobe Illustrator 19.0.0, SVG Export Plug-In . SVG Version: 6.00 Build 0)  -->
<svg version="1.1" id="Capa_1" xmlns="http://www.w3.org/2000/svg" xmlns:xlink="http://www.w3.org/1999/xlink" x="0px" y="0px"
	 viewBox="0 0 496 496" style="enable-background:new 0 0 496 496;" xml:space="preserve">
<g>
	<path style="fill:#F0BC5E;" d="M336,296l7.536,11.304c5.52,8.28,8.464,18,8.464,27.952l0,0c0,19.912-11.728,37.96-29.92,46.04l0,0
		c-27.976,12.432-54.56,27.776-79.32,45.784L192,464v-18.8c0-13.944,3.248-27.696,9.48-40.168l0,0
		c4.32-8.632,10-16.52,16.824-23.344L232,368L336,296z"/>
	<path style="fill:#F0BC5E;" d="M344,128L344,128c10.248,10.248,16,24.136,16,38.624v0.504c0,5.872-0.944,11.704-2.8,17.272l0,0
		c-3.312,9.944-10.616,18.056-20.16,22.392l0,0c-48.528,22.056-94.296,49.728-136.368,82.456L192,296v-41.264
		c0-19.896,6.768-39.2,19.2-54.736l0,0c8.416-10.528,19.152-18.968,31.368-24.664l45.432-21.2L344,128z"/>
</g>
<path d="M368,250.496c0-13.928-5.168-27.264-14.536-37.544l-4.024-4.416c7.064-5.496,12.48-12.984,15.344-21.584
	c2.128-6.4,3.216-13.064,3.216-20.32c0-15.024-5.296-29.216-14.936-40.528l4.056-12.136c1.912-5.752,2.88-11.744,2.88-17.808
	c0-17.632-8.424-34.472-22.528-45.056L324.8,41.6c-1.768-1.328-3.976-1.84-6.152-1.488c-2.168,0.368-4.088,1.624-5.304,3.448
	c-0.328,0.488-0.736,0.92-1.072,1.4c-6.944-6.952-15.848-11.12-25.432-12.392C282.728,22.168,271.256,0,248,0
	c-24.248,0-35.056,23.992-38.488,33.904c-12.208,3.416-19.176,10.64-22.416,14.992C184.544,48.32,181.92,48,179.24,48
	C159.816,48,144,63.808,144,83.24c0,10.872,2.712,21.568,7.712,31.136c-13.8,5.136-23.712,18.336-23.712,33.912
	c0,19.712,5.784,38.808,16.72,55.216l0.624,0.936c1.488,2.24,3.176,4.304,4.768,6.448c-12.984,5.528-22.112,18.416-22.112,33.4
	c0,19.712,5.784,38.808,16.72,55.216l0.624,0.936c3.952,5.936,8.416,11.416,13.096,16.68C152.408,322.456,144,333.232,144,352
	c0,14.304,10.48,27.704,21.248,37.72C159.36,394.64,152,403.304,152,416c0,18.384,28.608,47.92,34.344,53.656l0.024-0.024
	c0.584,0.584,1.24,1.104,2,1.496C189.512,471.712,190.76,472,192,472c1.656,0,3.312-0.512,4.704-1.528l3.368-2.448
	c0.088,4.04,1.024,8.056,2.816,11.624l0.584,1.2c4.688,9.344,14.08,15.152,24.536,15.152c3.744,0,7.376-0.744,10.808-2.216
	l6.608-2.832c31.056-13.304,59.96-31.016,85.92-52.656c8.04-6.704,12.656-16.56,12.656-27.032c0-9.392-3.656-18.224-10.304-24.88
	l-1.464-1.464C349.296,374.384,360,355.664,360,335.256c0-11.56-3.392-22.76-9.808-32.384l-5-7.496
	C359.416,284.992,368,268.544,368,250.496z M330.032,286.04c-36.352,18.176-69.344,41.96-98.072,70.68L200,388.68v-45.256
	c0-9.368,1.504-18.632,4.464-27.528c5.192-15.544,14.688-29.184,27.184-39.52c32.624-22.944,67.288-42.992,103.464-59.808
	l6.528,7.16c6.68,7.328,10.36,16.832,10.36,26.768C352,265.648,343.584,279.264,330.032,286.04z M321.72,59.288l6.16,4.616
	C337.968,71.48,344,83.536,344,96.16c0,4.344-0.696,8.632-2.064,12.744l-4.44,13.304l-36.88,17.208l6.768,14.496l34.584-16.144
	c6.488,8.208,10.032,18.32,10.032,29.36c0,5.024-0.808,9.984-2.392,14.744c-2.6,7.8-8.392,14.232-15.88,17.64
	c-33.792,15.36-66.312,33.512-97.192,54.104l-0.032-0.056l-2.464,1.48c-4.16,2.496-8.056,5.344-11.792,8.376
	c-7.512,5.288-14.96,10.672-22.248,16.248v-24.936c0-18.008,6.192-35.672,17.456-49.736c7.6-9.512,17.464-17.264,28.496-22.408
	l45.432-21.2l-6.768-14.496l-45.432,21.2c-4.08,1.904-7.968,4.192-11.744,6.664l-5.496-8.24c-3.88-5.848-5.944-12.648-5.944-19.664
	c0-13.512,7.504-25.656,19.592-31.696l46.184-23.096C297.376,84.256,311.048,73.016,321.72,59.288z M302.016,57.336
	c-7.928,8.248-17.104,15.264-27.392,20.4L236.44,96.824l-4.688-5.624l27.52-33.032C264.656,51.704,272.568,48,280.984,48
	c7.544,0,14.64,2.936,19.976,8.28L302.016,57.336z M248,16c10.864,0,17.912,9.88,21.744,17.504
	c-7.456,1.952-14.304,5.808-19.856,11.296c-4.48-5.232-11.856-11.408-22.32-12.592C231.256,24.84,237.784,16,248,16z M224,48
	c7.632,0,12.856,5.776,15.28,9.168l-17.944,21.536L206.312,60.68c-1.368-1.64-2.944-3.032-4.552-4.376
	C205.096,52.84,211.872,48,224,48z M179.24,64c5.728,0,11.12,2.52,14.784,6.92l28.064,33.68
	c-13.088,9.048-21.128,23.616-21.912,39.72c-10.296-8.216-19.68-17.52-27.952-27.856l-1.008-1.256
	C163.984,106.176,160,94.824,160,83.24C160,72.632,168.632,64,179.24,64z M144,148.288c0-10.168,7.544-18.536,17.312-19.984
	c12.144,14.8,26.312,27.736,42.248,38.352l0.336-0.496c1.296,3.192,2.808,6.312,4.744,9.224l6.16,9.248
	c-3.512,3.24-6.872,6.648-9.848,10.376c-7.656,9.576-13.288,20.568-16.8,32.208c-11.432-8.928-21.384-19.488-29.496-31.656
	l-0.624-0.936C148.848,180.848,144,164.832,144,148.288z M144,244.288c0-10.168,7.552-18.536,17.32-19.984
	c7.04,7.48,14.816,14.224,23.304,20.184c-0.368,3.392-0.624,6.808-0.624,10.248V296c0,3.056,1.744,5.84,4.488,7.184
	c1.088,0.528,2.264,0.776,3.432,0.792c-0.936,2.256-1.856,4.528-2.632,6.856c-1.208,3.632-2.128,7.328-2.928,11.048
	c-10.696-8.64-20-18.776-27.696-30.32l-0.624-0.936C148.848,276.848,144,260.832,144,244.288z M160,352
	c0-13.856,6.352-20.816,9.696-23.512c4.56,4.144,9.36,8.04,14.44,11.632c-0.04,1.104-0.136,2.2-0.136,3.304v41.184
	C172.96,375.896,160,363.024,160,352z M177.936,400.168c2.328,1.704,4.392,3.128,6.064,4.224V408c0,3.192,1.904,6.064,4.832,7.328
	c-2.896,9.048-4.536,18.472-4.72,27.96C175.12,432.304,168,421.296,168,416C168,407.768,174.728,402.312,177.936,400.168z
	 M321.096,426.008c-24.76,20.64-52.344,37.536-81.968,50.24l-6.616,2.832c-5.384,2.32-12.088-0.136-14.712-5.36l-0.592-1.2
	c-0.792-1.576-1.208-3.344-1.208-5.104v-10.984l31.464-22.88c21.832-15.872,45.28-29.576,69.712-41.056l5.2,5.192
	C326,401.32,328,406.144,328,411.264C328,416.976,325.488,422.352,321.096,426.008z M318.832,373.984
	c-28.432,12.64-55.6,28.328-80.776,46.632L200,448.288V445.2c0-12.632,2.984-25.28,8.64-36.592
	c3.936-7.88,9.096-15.032,15.32-21.256l13.696-13.696l0,0l5.616-5.616c25.952-25.952,55.576-47.624,88.064-64.608l5.544,8.32
	c4.656,6.992,7.12,15.12,7.12,23.512C344,351.992,334.12,367.192,318.832,373.984z"/>
<g>
</g>
<g>
</g>
<g>
</g>
<g>
</g>
<g>
</g>
<g>
</g>
<g>
</g>
<g>
</g>
<g>
</g>
<g>
</g>
<g>
</g>
<g>
</g>
<g>
</g>
<g>
</g>
<g>
</g>
</svg>
