<?xml version="1.0" encoding="iso-8859-1"?>
<!-- Generator: Adobe Illustrator 19.0.0, SVG Export Plug-In . SVG Version: 6.00 Build 0)  -->
<svg version="1.1" id="Capa_1" xmlns="http://www.w3.org/2000/svg" xmlns:xlink="http://www.w3.org/1999/xlink" x="0px" y="0px"
	 viewBox="0 0 496 496" style="enable-background:new 0 0 496 496;" xml:space="preserve">
<path d="M496,432h-48V216c0-22.056-17.944-40-40-40h-64.208c5.08-6.704,8.208-14.96,8.208-24c0-19.36-13.84-35.544-32.144-39.208
	c-0.776-21.176-5.544-66.08-31.032-91.568L272.92,5.56C269.288,1.976,264.464,0,259.344,0C248.68,0,240,8.68,240,19.344v2.48
	c0,17.128-10.776,32.672-26.808,38.68c-21.808,8.184-36.512,29.088-37.08,52.288C157.824,116.472,144,132.648,144,152
	c0,22.056,17.944,40,40,40v-16c-13.232,0-24-10.768-24-24s10.768-24,24-24h8v-8v-5.824c0-17.128,10.776-32.672,26.808-38.68
	c12.56-4.712,22.664-13.72,29.192-24.88v1.504c0,10.68-4.16,20.728-11.712,28.288l-20.32,20.32
	C205.664,111.016,200,124.704,200,139.264c0,13.952,5.304,26.888,14.352,36.736H192v16h48v32h-40v16h40v144h16V240h128v-16H256v-32
	h152c13.232,0,24,10.768,24,24v8h-32v16h32v192H256v-32h-16v32H64v-64H48v64H0v16h26.232l16,48H453.76l16-48H496V432z
	 M237.28,173.696c-13.128-6.56-21.28-19.76-21.28-34.432c0-10.288,4-19.952,11.28-27.224l20.32-20.32
	c10.576-10.576,16.4-24.64,16.4-39.6V38.784l1.664,4.44c8.936,23.824,9.424,50.232,1.376,74.352
	c-2.016,6.056-3.04,12.36-3.04,18.744c0,15.048,5.664,29,15.352,39.68h-37.456L237.28,173.696z M305.888,176l-1.976-0.992
	C289.168,167.64,280,152.816,280,136.32c0-4.664,0.744-9.264,2.216-13.68c9.2-27.592,8.64-57.792-1.568-85.032l-0.88-2.352
	C297.488,55.392,304,91.728,304,120v8h8c13.232,0,24,10.768,24,24s-10.768,24-24,24H305.888z M442.232,480H53.768l-10.664-32h409.8
	L442.232,480z"/>
<rect x="288" y="264" width="16" height="16"/>
<rect x="344" y="288" width="16" height="16"/>
<rect x="400" y="272" width="16" height="16"/>
<rect x="392" y="336" width="16" height="16"/>
<rect x="392" y="400" width="16" height="16"/>
<rect x="336" y="352" width="16" height="16"/>
<rect x="272" y="328" width="16" height="16"/>
<rect x="296" y="400" width="16" height="16"/>
<path style="fill:#F0BC5E;" d="M48,376c-13.232,0-24-10.768-24-24V216c0-22.056,17.944-40,40-40h136v88c0,13.232-10.768,24-24,24
	s-24-10.768-24-24v-24c0-4.416-3.584-8-8-8s-8,3.584-8,8v80c0,13.232-10.768,24-24,24s-24-10.768-24-24v-56c0-4.416-3.584-8-8-8
	s-8,3.584-8,8v88C72,365.232,61.232,376,48,376z"/>
<g>
</g>
<g>
</g>
<g>
</g>
<g>
</g>
<g>
</g>
<g>
</g>
<g>
</g>
<g>
</g>
<g>
</g>
<g>
</g>
<g>
</g>
<g>
</g>
<g>
</g>
<g>
</g>
<g>
</g>
</svg>
