<?xml version="1.0" encoding="iso-8859-1"?>
<!-- Generator: Adobe Illustrator 19.0.0, SVG Export Plug-In . SVG Version: 6.00 Build 0)  -->
<svg version="1.1" id="Capa_1" xmlns="http://www.w3.org/2000/svg" xmlns:xlink="http://www.w3.org/1999/xlink" x="0px" y="0px"
	 viewBox="0 0 496 496" style="enable-background:new 0 0 496 496;" xml:space="preserve">
<g>
	<path style="fill:#F0BC5E;" d="M192,392c0,8.84,7.16,16,16,16s16-7.16,16-16v-80h-32V392z"/>
	<path style="fill:#F0BC5E;" d="M272,312v48c0,8.84,7.16,16,16,16s16-7.16,16-16v-48H272z"/>
	<path style="fill:#F0BC5E;" d="M112,360c0,8.84,7.16,16,16,16s16-7.16,16-16v-48h-32V360z"/>
	<path style="fill:#F0BC5E;" d="M440,336h-85.576c12.232,8.768,22.904,19.56,31.384,32H440c8.84,0,16-7.16,16-16S448.84,336,440,336
		z"/>
	<path style="fill:#F0BC5E;" d="M440,232h-88h-16h-24c-8.84,0-16,7.16-16,16s7.16,16,16,16h128c8.84,0,16-7.16,16-16
		S448.84,232,440,232z"/>
</g>
<path d="M74.344,269.656l11.312-11.312l-7.032-7.032C69.192,241.88,64,229.344,64,216s5.192-25.88,14.624-35.312l7.032-7.032
	C97.488,161.824,104,146.096,104,129.368v-2.744c0-16.728-6.512-32.456-18.344-44.288L74.344,93.648
	C83.152,102.464,88,114.176,88,126.632v2.744c0,12.456-4.848,24.168-13.656,32.976l-7.032,7.032C54.856,181.824,48,198.384,48,216
	s6.856,34.176,19.312,46.624L74.344,269.656z"/>
<path d="M138.344,269.656l11.312-11.312l-7.032-7.032C133.192,241.88,128,229.344,128,216s5.192-25.88,14.624-35.312l7.032-7.032
	C161.488,161.824,168,146.096,168,129.368v-2.744c0-16.728-6.512-32.456-18.344-44.288l-11.312,11.312
	c8.808,8.816,13.656,20.528,13.656,32.984v2.744c0,12.456-4.848,24.168-13.656,32.976l-7.032,7.032
	C118.856,181.824,112,198.384,112,216s6.856,34.176,19.312,46.624L138.344,269.656z"/>
<path d="M202.344,269.656l11.312-11.312l-7.032-7.032C197.192,241.88,192,229.344,192,216s5.192-25.88,14.624-35.312l7.032-7.032
	C225.488,161.824,232,146.096,232,129.368v-2.744c0-16.728-6.512-32.456-18.344-44.288l-11.312,11.312
	c8.808,8.816,13.656,20.528,13.656,32.984v2.744c0,12.456-4.848,24.168-13.656,32.976l-7.032,7.032
	C182.856,181.824,176,198.384,176,216s6.856,34.176,19.312,46.624L202.344,269.656z"/>
<path d="M376,0c-66.168,0-120,53.832-120,120v184H136C61.008,304,0,365.008,0,440c0,30.88,25.128,56,56,56h292.04H360h16
	c66.168,0,120-53.832,120-120V120C496,53.832,442.168,0,376,0z M348.04,480H56c-19.312,0-35.472-13.768-39.192-32H328v-16H16.408
	C20.552,369.56,72.528,320,136,320h144c63.472,0,115.448,49.56,119.592,112H344v16h55.192c-3.72,18.232-19.872,32-39.192,32H348.04z
	 M480,376c0,48.208-33.024,88.744-77.6,100.472c8.456-9.808,13.6-22.536,13.6-36.472c0-74.992-61.008-136-136-136h-8V120
	c0-57.344,46.656-104,104-104s104,46.656,104,104V376z"/>
<path style="fill:#F0BC5E;" d="M440,128h-88h-16h-24c-8.84,0-16,7.16-16,16s7.16,16,16,16h128c8.84,0,16-7.16,16-16
	S448.84,128,440,128z"/>
<g>
</g>
<g>
</g>
<g>
</g>
<g>
</g>
<g>
</g>
<g>
</g>
<g>
</g>
<g>
</g>
<g>
</g>
<g>
</g>
<g>
</g>
<g>
</g>
<g>
</g>
<g>
</g>
<g>
</g>
</svg>
