<?xml version="1.0" encoding="iso-8859-1"?>
<!-- Generator: Adobe Illustrator 19.0.0, SVG Export Plug-In . SVG Version: 6.00 Build 0)  -->
<svg version="1.1" id="Capa_1" xmlns="http://www.w3.org/2000/svg" xmlns:xlink="http://www.w3.org/1999/xlink" x="0px" y="0px"
	 viewBox="0 0 496 496" style="enable-background:new 0 0 496 496;" xml:space="preserve">
<g>
	<rect x="120" y="56" style="fill:#F0BC5E;" width="80" height="16"/>
	<rect x="120" y="120" style="fill:#F0BC5E;" width="80" height="16"/>
	<rect x="120" y="184" style="fill:#F0BC5E;" width="80" height="16"/>
	<rect x="56" y="296" style="fill:#F0BC5E;" width="80" height="16"/>
	<rect x="56" y="360" style="fill:#F0BC5E;" width="80" height="16"/>
	<rect x="56" y="424" style="fill:#F0BC5E;" width="80" height="16"/>
	<path style="fill:#F0BC5E;" d="M336,296c-13.232,0-24-10.768-24-24s10.768-24,24-24s24,10.768,24,24S349.232,296,336,296z"/>
	<path style="fill:#F0BC5E;" d="M416,184c-13.232,0-24-10.768-24-24s10.768-24,24-24s24,10.768,24,24S429.232,184,416,184z"/>
	<path style="fill:#F0BC5E;" d="M320,192c-13.232,0-24-10.768-24-24s10.768-24,24-24s24,10.768,24,24S333.232,192,320,192z"/>
</g>
<path d="M472,384H264c-13.232,0-24,10.768-24,24s10.768,24,24,24h208c13.232,0,24-10.768,24-24S485.232,384,472,384z M472,416H264
	c-4.416,0-8-3.592-8-8s3.584-8,8-8h208c4.416,0,8,3.592,8,8S476.416,416,472,416z"/>
<path d="M472,320h-42.168C469.24,298.152,496,256.16,496,208c0-70.576-57.424-128-128-128c-49.576,0-92.56,28.384-113.816,69.696
	c-0.68-1.968-1.496-3.888-2.552-5.696c2.848-4.856,4.368-10.36,4.368-16s-1.52-11.144-4.368-16c2.848-4.856,4.368-10.36,4.368-16
	s-1.52-11.144-4.368-16C254.48,75.144,256,69.64,256,64s-1.52-11.144-4.368-16C254.48,43.144,256,37.64,256,32
	c0-17.648-14.352-32-32-32c-5.64,0-11.152,1.52-16,4.36c-9.704-5.68-22.296-5.68-32,0c-9.704-5.68-22.296-5.68-32,0
	c-9.704-5.68-22.296-5.68-32,0C107.152,1.52,101.64,0,96,0C78.352,0,64,14.352,64,32c0,5.64,1.52,11.144,4.368,16
	C65.52,52.856,64,58.36,64,64s1.52,11.144,4.368,16C65.52,84.856,64,90.36,64,96s1.52,11.144,4.368,16
	C65.52,116.856,64,122.36,64,128s1.52,11.144,4.368,16C65.52,148.856,64,154.36,64,160s1.52,11.144,4.368,16
	C65.52,180.856,64,186.36,64,192s1.52,11.144,4.368,16C65.52,212.856,64,218.36,64,224c0,6.048,1.784,11.648,4.712,16.472
	c-7.08-1.024-14.488,0.248-20.712,3.888c-4.848-2.84-10.36-4.36-16-4.36c-17.648,0-32,14.352-32,32c0,5.64,1.52,11.144,4.368,16
	C1.52,292.856,0,298.36,0,304s1.52,11.144,4.368,16C1.52,324.856,0,330.36,0,336s1.52,11.144,4.368,16C1.52,356.856,0,362.36,0,368
	s1.52,11.144,4.368,16C1.52,388.856,0,394.36,0,400s1.52,11.144,4.368,16C1.52,420.856,0,426.36,0,432s1.52,11.144,4.368,16
	C1.52,452.856,0,458.36,0,464c0,17.648,14.352,32,32,32c5.64,0,11.152-1.52,16-4.36c9.704,5.68,22.296,5.68,32,0
	c9.704,5.68,22.296,5.68,32,0c9.704,5.68,22.296,5.68,32,0c4.848,2.84,10.36,4.36,16,4.36c17.648,0,32-14.352,32-32
	c0-5.64-1.52-11.144-4.368-16c2.848-4.856,4.368-10.36,4.368-16s-1.52-11.144-4.368-16c2.848-4.856,4.368-10.36,4.368-16
	s-1.52-11.144-4.368-16c2.848-4.856,4.368-10.36,4.368-16s-1.52-11.144-4.368-16c2.848-4.856,4.368-10.36,4.368-16
	s-1.52-11.144-4.368-16c2.848-4.856,4.368-10.36,4.368-16s-1.52-11.144-4.368-16c2.848-4.856,4.368-10.36,4.368-16
	c0-6.048-1.784-11.648-4.712-16.472c7.08,1.032,14.488-0.248,20.712-3.888c4.848,2.84,10.36,4.36,16,4.36
	c8.6,0,16.376-3.448,22.128-8.984c10.032,31.264,31.768,57.312,60.04,72.984H264c-13.232,0-24,10.768-24,24s10.768,24,24,24h32v-16
	h-32c-4.416,0-8-3.592-8-8s3.584-8,8-8h208c4.416,0,8,3.592,8,8s-3.584,8-8,8H312v16h160c13.232,0,24-10.768,24-24
	S485.232,320,472,320z M171.832,293.352c1.904,2.12,4.168,5.68,4.168,10.648s-2.264,8.528-4.168,10.648L167.008,320l4.824,5.352
	c1.904,2.12,4.168,5.68,4.168,10.648s-2.264,8.528-4.168,10.648L167.008,352l4.824,5.352c1.904,2.12,4.168,5.68,4.168,10.648
	s-2.264,8.528-4.168,10.648L167.008,384l4.824,5.352c1.904,2.12,4.168,5.68,4.168,10.648s-2.264,8.528-4.168,10.648L167.008,416
	l4.824,5.352c1.904,2.12,4.168,5.68,4.168,10.648s-2.264,8.528-4.168,10.648L167.008,448l4.824,5.352
	c1.904,2.12,4.168,5.68,4.168,10.648c0,8.824-7.176,16-16,16c-3.88,0-7.656-1.48-10.64-4.168L144,471l-5.36,4.832
	c-5.968,5.384-15.312,5.384-21.28,0L112,471l-5.36,4.832c-5.968,5.384-15.312,5.384-21.28,0L80,471l-5.36,4.832
	c-5.968,5.384-15.312,5.384-21.28,0L48,471l-5.36,4.832C39.656,478.52,35.88,480,32,480c-8.824,0-16-7.176-16-16
	c0-4.968,2.264-8.528,4.168-10.648L24.992,448l-4.824-5.352C18.264,440.528,16,436.968,16,432s2.264-8.528,4.168-10.648L24.992,416
	l-4.824-5.352C18.264,408.528,16,404.968,16,400s2.264-8.528,4.168-10.648L24.992,384l-4.824-5.352
	C18.264,376.528,16,372.968,16,368s2.264-8.528,4.168-10.648L24.992,352l-4.824-5.352C18.264,344.528,16,340.968,16,336
	s2.264-8.528,4.168-10.648L24.992,320l-4.824-5.352C18.264,312.528,16,308.968,16,304s2.264-8.528,4.168-10.648L24.992,288
	l-4.824-5.352C18.264,280.528,16,276.968,16,272c0-8.824,7.176-16,16-16c3.88,0,7.656,1.48,10.648,4.168L48,264.992l5.352-4.824
	c5.984-5.384,15.312-5.384,21.296,0L80,264.992l5.352-4.824c5.984-5.384,15.312-5.384,21.296,0l5.352,4.824l5.352-4.824
	c5.984-5.384,15.312-5.384,21.296,0l5.352,4.824l5.352-4.824C152.344,257.48,156.12,256,160,256c8.824,0,16,7.176,16,16
	c0,4.968-2.264,8.528-4.168,10.648L167.008,288L171.832,293.352z M224,240c-3.88,0-7.656-1.48-10.64-4.168L208,231l-5.36,4.832
	c-5.968,5.384-15.312,5.384-21.28,0L176,231l-5.36,4.832c-5.968,5.384-15.312,5.384-21.28,0L144,231l-5.36,4.832
	c-5.968,5.384-15.312,5.384-21.28,0L112,231l-5.36,4.832C103.656,238.52,99.88,240,96,240c-8.824,0-16-7.176-16-16
	c0-4.968,2.264-8.528,4.168-10.648L88.992,208l-4.824-5.352C82.264,200.528,80,196.968,80,192s2.264-8.528,4.168-10.648L88.992,176
	l-4.824-5.352C82.264,168.528,80,164.968,80,160s2.264-8.528,4.168-10.648L88.992,144l-4.824-5.352
	C82.264,136.528,80,132.968,80,128s2.264-8.528,4.168-10.648L88.992,112l-4.824-5.352C82.264,104.528,80,100.968,80,96
	s2.264-8.528,4.168-10.648L88.992,80l-4.824-5.352C82.264,72.528,80,68.968,80,64s2.264-8.528,4.168-10.648L88.992,48l-4.824-5.352
	C82.264,40.528,80,36.968,80,32c0-8.824,7.176-16,16-16c3.88,0,7.656,1.48,10.648,4.168L112,24.992l5.352-4.824
	c5.984-5.384,15.312-5.384,21.296,0L144,24.992l5.352-4.824c5.984-5.384,15.312-5.384,21.296,0L176,24.992l5.352-4.824
	c5.984-5.384,15.312-5.384,21.296,0L208,24.992l5.352-4.824C216.344,17.48,220.12,16,224,16c8.824,0,16,7.176,16,16
	c0,4.968-2.264,8.528-4.168,10.648L231.008,48l4.824,5.352C237.736,55.472,240,59.032,240,64s-2.264,8.528-4.168,10.648L231.008,80
	l4.824,5.352C237.736,87.472,240,91.032,240,96s-2.264,8.528-4.168,10.648L231.008,112l4.824,5.352
	c1.904,2.12,4.168,5.68,4.168,10.648s-2.264,8.528-4.168,10.648L231.008,144l4.824,5.352c1.904,2.12,4.168,5.68,4.168,10.648
	s-2.264,8.528-4.168,10.648L231.008,176l4.824,5.352c1.904,2.12,4.168,5.68,4.168,10.648s-2.264,8.528-4.168,10.648L231.008,208
	l4.824,5.352c1.904,2.12,4.168,5.68,4.168,10.648C240,232.824,232.824,240,224,240z M256,208c0-61.76,50.24-112,112-112
	s112,50.24,112,112s-50.24,112-112,112S256,269.76,256,208z"/>
<path d="M472,448h-56v16h56c4.416,0,8,3.592,8,8s-3.584,8-8,8H264c-4.416,0-8-3.592-8-8s3.584-8,8-8h136v-16H264
	c-13.232,0-24,10.768-24,24s10.768,24,24,24h208c13.232,0,24-10.768,24-24S485.232,448,472,448z"/>
<rect x="104" y="56" width="16" height="16"/>
<rect x="136" y="56" width="16" height="16"/>
<rect x="168" y="56" width="16" height="16"/>
<rect x="200" y="56" width="16" height="16"/>
<rect x="104" y="120" width="16" height="16"/>
<rect x="136" y="120" width="16" height="16"/>
<rect x="168" y="120" width="16" height="16"/>
<rect x="200" y="120" width="16" height="16"/>
<rect x="104" y="184" width="16" height="16"/>
<rect x="136" y="184" width="16" height="16"/>
<rect x="168" y="184" width="16" height="16"/>
<rect x="200" y="184" width="16" height="16"/>
<rect x="40" y="296" width="16" height="16"/>
<rect x="72" y="296" width="16" height="16"/>
<rect x="104" y="296" width="16" height="16"/>
<rect x="136" y="296" width="16" height="16"/>
<rect x="40" y="360" width="16" height="16"/>
<rect x="72" y="360" width="16" height="16"/>
<rect x="104" y="360" width="16" height="16"/>
<rect x="136" y="360" width="16" height="16"/>
<rect x="40" y="424" width="16" height="16"/>
<rect x="72" y="424" width="16" height="16"/>
<rect x="104" y="424" width="16" height="16"/>
<rect x="136" y="424" width="16" height="16"/>
<rect x="360" y="112" width="16" height="16"/>
<rect x="360" y="200" width="16" height="16"/>
<rect x="448" y="208" width="16" height="16"/>
<rect x="408" y="272" width="16" height="16"/>
<rect x="272" y="200" width="16" height="16"/>
<g>
	<path style="fill:#F0BC5E;" d="M216,384h240c4.416,0,8-3.584,8-8l0,0c0-4.416-3.584-8-8-8H216c-4.416,0-8,3.584-8,8l0,0
		C208,380.416,211.584,384,216,384z"/>
	<path style="fill:#F0BC5E;" d="M216,448h240c4.416,0,8-3.584,8-8l0,0c0-4.416-3.584-8-8-8H216c-4.416,0-8,3.584-8,8l0,0
		C208,444.416,211.584,448,216,448z"/>
</g>
<g>
</g>
<g>
</g>
<g>
</g>
<g>
</g>
<g>
</g>
<g>
</g>
<g>
</g>
<g>
</g>
<g>
</g>
<g>
</g>
<g>
</g>
<g>
</g>
<g>
</g>
<g>
</g>
<g>
</g>
</svg>
