<?xml version="1.0" encoding="iso-8859-1"?>
<!-- Generator: Adobe Illustrator 19.0.0, SVG Export Plug-In . SVG Version: 6.00 Build 0)  -->
<svg version="1.1" id="Capa_1" xmlns="http://www.w3.org/2000/svg" xmlns:xlink="http://www.w3.org/1999/xlink" x="0px" y="0px"
	 viewBox="0 0 496.017 496.017" style="enable-background:new 0 0 496.017 496.017;" xml:space="preserve">
<path d="M75.157,496.014c-19.592,0-38.648-7.688-53.056-22.104C1.805,453.615-5.163,424.094,3.917,396.87l14.288-42.848
	c25.72-77.168,69.72-148.368,127.248-205.88C200.245,93.35,267.773,50.614,340.741,24.55l56.816-20.296
	c26.68-9.528,56.864-2.736,76.912,17.296l0,0c20.032,20.04,26.824,50.224,17.296,76.912l-20.296,56.816
	c-26.064,72.968-68.8,140.496-123.592,195.288c-57.512,57.52-128.712,101.52-205.88,127.248l-42.848,14.288
	C91.237,494.734,83.149,496.014,75.157,496.014z M422.213,15.998c-6.488,0-13.008,1.088-19.288,3.336L346.109,39.63
	c-70.752,25.272-136.232,66.704-189.36,119.832c-55.776,55.768-98.44,124.8-123.376,199.632l-14.288,42.848
	c-7.152,21.44-1.664,44.68,14.32,60.664s39.248,21.48,60.664,14.32l42.848-14.288c74.832-24.944,143.864-67.608,199.632-123.376
	c53.128-53.128,94.56-118.608,119.832-189.36l20.296-56.816c7.464-20.888,2.144-44.52-13.536-60.216
	C452.165,21.894,437.301,15.998,422.213,15.998z"/>
<g>
	<path style="fill:#F0BC5E;" d="M112.045,287.966c0,0,32,32,32,72s-32,72-32,72s-32-32-32-72S112.045,287.966,112.045,287.966z"/>
	<path style="fill:#F0BC5E;" d="M248.045,175.966c0,0,32,32,32,72s-32,72-32,72s-32-32-32-72S248.045,175.966,248.045,175.966z"/>
	<path style="fill:#F0BC5E;" d="M384.045,63.966c0,0,32,32,32,72s-32,72-32,72s-32-32-32-72S384.045,63.966,384.045,63.966z"/>
</g>
<rect x="184.045" y="343.966" width="16" height="16"/>
<rect x="320.045" y="215.966" width="16" height="16"/>
<rect x="312.045" y="79.966" width="16" height="16"/>
<rect x="272.045" y="135.966" width="16" height="16"/>
<rect x="144.045" y="199.966" width="16" height="16"/>
<rect x="184.045" y="263.966" width="16" height="16"/>
<rect x="144.045" y="247.966" width="16" height="16"/>
<rect x="232.045" y="375.966" width="16" height="16"/>
<rect x="152.045" y="407.966" width="16" height="16"/>
<rect x="312.045" y="295.966" width="16" height="16"/>
<rect x="440.045" y="63.966" width="16" height="16"/>
<rect x="40.045" y="391.966" width="16" height="16"/>
<rect x="64.045" y="447.966" width="16" height="16"/>
<g>
</g>
<g>
</g>
<g>
</g>
<g>
</g>
<g>
</g>
<g>
</g>
<g>
</g>
<g>
</g>
<g>
</g>
<g>
</g>
<g>
</g>
<g>
</g>
<g>
</g>
<g>
</g>
<g>
</g>
</svg>
