<?xml version="1.0" encoding="iso-8859-1"?>
<!-- Generator: Adobe Illustrator 19.0.0, SVG Export Plug-In . SVG Version: 6.00 Build 0)  -->
<svg version="1.1" id="Capa_1" xmlns="http://www.w3.org/2000/svg" xmlns:xlink="http://www.w3.org/1999/xlink" x="0px" y="0px"
	 viewBox="0 0 496 496" style="enable-background:new 0 0 496 496;" xml:space="preserve">
<path style="fill:#F0BC5E;" d="M136,222.828c14.896,0,27.304,10.224,30.872,24h2.264c3.568-13.776,15.976-24,30.872-24
	s27.304,10.224,30.872,24h2.264c3.568-13.776,15.976-24,30.872-24s27.304,10.224,30.872,24h2.264c3.568-13.776,15.976-24,30.872-24
	s27.304,10.224,30.872,24h2.264c3.568-13.776,15.976-24,30.872-24s27.304,10.224,30.872,24h2.264c3.568-13.776,15.976-24,30.872-24
	c2.624,0,5.144,0.408,7.584,1l-0.064-3.736c-1.424-3.8-35.472-93.264-167.56-93.264s-166.136,89.464-167.512,93.264l-0.064,3.736
	C130.856,223.236,133.376,222.828,136,222.828z"/>
<path d="M496,254.828c0-22.056-17.944-40-40-40c-13.128,0-24.704,6.448-32,16.248c-7.296-9.8-18.872-16.248-32-16.248
	s-24.704,6.448-32,16.248c-7.296-9.8-18.872-16.248-32-16.248s-24.704,6.448-32,16.248c-7.296-9.8-18.872-16.248-32-16.248
	s-24.704,6.448-32,16.248c-7.296-9.8-18.872-16.248-32-16.248s-24.704,6.448-32,16.248c-7.296-9.8-18.872-16.248-32-16.248
	c-22.056,0-40,17.944-40,40c0,10.968,7.44,20.136,17.504,22.992l9.752,39.016c-4.184,2.048-8.152,4.56-11.792,7.592
	c-2.576-34.472-17.112-66.56-41.808-91.256l-11.312,11.312c21.464,21.472,34.368,49.2,37.08,79.064
	c-10.36-8.224-23.08-12.72-36.512-12.72C26.424,310.828,0,337.252,0,369.74c0,20.368,5.16,40.584,14.904,58.456l25.04,45.92
	c6.976,12.776,20.352,20.712,34.904,20.712c10.616,0,20.6-4.136,28.112-11.648l1.04-1.04l1.04,1.04
	c7.512,7.512,17.496,11.648,28.112,11.648c14.552,0,27.928-7.936,34.896-20.712l25.04-45.92
	c8.936-16.384,13.96-34.736,14.744-53.368h227.672c11.032,0,20.608-7.48,23.288-18.176l19.704-78.824
	C488.56,274.964,496,265.796,496,254.828z M392,230.828c13.232,0,24,10.768,24,24c0,4.408-3.592,8-8,8h-32c-4.408,0-8-3.592-8-8
	C368,241.596,378.768,230.828,392,230.828z M328,230.828c13.232,0,24,10.768,24,24c0,4.408-3.592,8-8,8h-32c-4.408,0-8-3.592-8-8
	C304,241.596,314.768,230.828,328,230.828z M264,230.828c13.232,0,24,10.768,24,24c0,4.408-3.592,8-8,8h-32c-4.408,0-8-3.592-8-8
	C240,241.596,250.768,230.828,264,230.828z M200,230.828c13.232,0,24,10.768,24,24c0,4.408-3.592,8-8,8h-32c-4.408,0-8-3.592-8-8
	C176,241.596,186.768,230.828,200,230.828z M136,230.828c13.232,0,24,10.768,24,24c0,4.408-3.592,8-8,8h-32c-4.408,0-8-3.592-8-8
	C112,241.596,122.768,230.828,136,230.828z M179.048,420.532l-25.04,45.92c-4.176,7.632-12.16,12.376-20.856,12.376
	c-6.344,0-12.312-2.472-16.8-6.96L104,459.516l-12.352,12.352c-4.488,4.488-10.456,6.96-16.8,6.96
	c-8.696,0-16.68-4.744-20.848-12.376l-25.04-45.92C20.48,404.996,16,387.436,16,369.74c0-23.664,19.248-42.912,42.912-42.912
	c11.464,0,22.24,4.464,30.344,12.568L104,354.14l14.744-14.744c8.104-8.104,18.88-12.568,30.344-12.568
	c23.664,0,42.912,19.248,42.912,42.912C192,387.436,187.52,404.996,179.048,420.532z M449.752,326.828H400v16h45.752l-2.488,9.936
	c-0.888,3.568-4.08,6.064-7.76,6.064h-228.56c-1.064-5.664-2.944-11.032-5.512-16H384v-16H189.328
	c-10.544-9.888-24.672-16-40.232-16c-3.592,0-7.128,0.36-10.6,0.984l-8.248-32.984H152c6.168,0,11.744-2.408,16-6.24
	c4.256,3.84,9.832,6.24,16,6.24h32c6.168,0,11.744-2.408,16-6.24c4.256,3.84,9.832,6.24,16,6.24h32c6.168,0,11.744-2.408,16-6.24
	c4.256,3.84,9.832,6.24,16,6.24h32c6.168,0,11.744-2.408,16-6.24c4.256,3.84,9.832,6.24,16,6.24h32c6.168,0,11.744-2.408,16-6.24
	c4.256,3.84,9.832,6.24,16,6.24h21.752L449.752,326.828z M472,262.828h-32c-4.408,0-8-3.592-8-8c0-13.232,10.768-24,24-24
	s24,10.768,24,24C480,259.236,476.408,262.828,472,262.828z"/>
<rect x="288" y="166.828" width="16" height="24"/>
<rect x="346" y="164.828" transform="matrix(-0.8 0.6 -0.6 -0.8 742.0968 102.2904)" width="16" height="20"/>
<rect x="228.014" y="166.833" transform="matrix(-0.6002 0.7999 -0.7999 -0.6002 520.7092 89.3838)" width="20.001" height="16.001"/>
<path d="M234.344,108.484l11.312-11.312l-8-8C234.064,85.58,232,80.596,232,75.516V74.14c0-5.08,2.064-10.064,5.656-13.656
	C244.328,53.82,248,44.948,248,35.516V34.14c0-9.432-3.672-18.304-10.344-24.968l-8-8l-11.312,11.312l8,8
	C229.936,24.076,232,29.06,232,34.14v1.376c0,5.08-2.064,10.064-5.656,13.656C219.672,55.836,216,64.708,216,74.14v1.376
	c0,9.432,3.672,18.304,10.344,24.968L234.344,108.484z"/>
<path d="M290.344,108.484l11.312-11.312l-8-8C290.064,85.58,288,80.596,288,75.516V74.14c0-5.08,2.064-10.064,5.656-13.656
	C300.328,53.82,304,44.948,304,35.516V34.14c0-9.432-3.672-18.304-10.344-24.968l-8-8l-11.312,11.312l8,8
	C285.936,24.076,288,29.06,288,34.14v1.376c0,5.08-2.064,10.064-5.656,13.656C275.672,55.836,272,64.708,272,74.14v1.376
	c0,9.432,3.672,18.304,10.344,24.968L290.344,108.484z"/>
<path d="M346.344,108.484l11.312-11.312l-8-8C346.064,85.58,344,80.596,344,75.516V74.14c0-5.08,2.064-10.064,5.656-13.656
	C356.328,53.82,360,44.948,360,35.516V34.14c0-9.432-3.672-18.304-10.344-24.968l-8-8l-11.312,11.312l8,8
	C341.936,24.076,344,29.06,344,34.14v1.376c0,5.08-2.064,10.064-5.656,13.656C331.672,55.836,328,64.708,328,74.14v1.376
	c0,9.432,3.672,18.304,10.344,24.968L346.344,108.484z"/>
<path d="M48,369.74c0-0.584,0.048-1.152,0.136-1.712l-15.824-2.4c-0.2,1.336-0.312,2.712-0.312,4.112
	c0,4.656,0.368,9.36,1.104,13.992l15.808-2.496C48.304,377.436,48,373.564,48,369.74z"/>
<path d="M52.12,394.076L37,399.324c1.624,4.664,3.64,9.224,5.976,13.504l20.312,37.784l14.096-7.576l-20.336-37.832
	C55.112,401.66,53.456,397.916,52.12,394.076z"/>
<g>
</g>
<g>
</g>
<g>
</g>
<g>
</g>
<g>
</g>
<g>
</g>
<g>
</g>
<g>
</g>
<g>
</g>
<g>
</g>
<g>
</g>
<g>
</g>
<g>
</g>
<g>
</g>
<g>
</g>
</svg>
